{"glyphs":{"0":{"ha":633,"x_min":90,"x_max":568,"o":"m 329 894 q 520 748 437 894 l 508 735 q 568 504 550 513 l 544 456 l 555 443 l 555 431 q 376 199 490 199 q 114 431 293 199 l 90 492 l 102 504 l 102 516 l 90 565 q 221 846 90 775 q 329 894 284 894 m 151 696 l 151 560 l 138 548 l 151 535 l 151 523 l 138 510 l 201 436 q 239 399 201 399 q 341 288 239 377 q 429 250 341 250 q 506 374 429 284 l 506 535 q 328 846 487 846 q 151 696 249 823 z "},"1":{"ha":330,"x_min":123,"x_max":222,"o":"m 146 924 q 191 635 174 924 l 184 604 l 191 597 l 184 544 l 184 475 l 191 445 l 184 437 l 184 430 q 222 141 204 354 l 214 134 l 184 134 l 184 141 l 191 179 q 161 210 161 186 l 168 232 l 161 232 l 168 240 l 146 452 l 146 475 l 153 483 l 153 490 l 146 490 l 153 498 l 153 528 l 146 536 l 146 544 l 153 551 l 146 559 l 153 566 l 146 566 l 161 650 l 123 916 l 130 924 l 146 924 z "},"2":{"ha":484,"x_min":28,"x_max":460,"o":"m 85 959 l 104 959 l 104 930 l 85 930 l 85 959 m 172 728 l 182 719 l 191 728 l 201 728 q 316 613 232 728 q 355 478 336 613 l 345 469 l 364 469 l 364 450 q 268 248 326 404 l 278 238 l 288 238 l 451 267 l 460 257 l 460 238 q 297 199 460 212 l 210 209 l 210 238 l 230 257 l 220 267 l 220 276 l 268 344 l 307 488 q 191 680 268 629 l 182 690 l 153 690 l 153 680 l 182 680 l 182 671 l 163 651 l 143 651 l 143 671 l 134 671 q 76 623 134 634 l 95 517 q 47 478 85 478 l 37 507 l 47 517 l 47 526 l 28 593 q 172 728 85 728 m 258 -41 l 288 -41 l 268 -60 l 258 -51 l 258 -41 z "},"3":{"ha":574,"x_min":77,"x_max":503,"o":"m 343 842 q 503 669 503 792 l 397 429 l 410 429 q 490 376 470 429 l 490 269 l 423 123 q 197 -131 387 19 l 170 -131 l 170 -64 q 383 163 213 -64 l 437 269 l 437 322 q 303 416 383 416 l 170 349 l 117 362 l 117 376 q 197 416 117 416 q 343 469 197 469 q 437 656 404 543 l 437 682 q 303 789 387 789 q 103 669 150 743 l 77 696 l 77 736 q 343 842 77 783 z "},"4":{"ha":615,"x_min":32,"x_max":600,"o":"m 196 768 q 284 579 269 762 l 297 566 l 284 566 l 310 465 l 310 377 l 322 377 l 423 427 l 461 415 l 537 440 l 550 427 l 550 402 q 335 314 379 314 l 335 301 l 360 61 l 360 -2 l 373 -15 l 360 -27 l 360 -40 l 373 -116 l 373 -128 l 335 -141 l 297 -116 l 310 11 l 284 150 l 297 162 l 284 175 l 297 175 l 284 187 l 284 301 l 272 301 l 57 225 l 32 301 l 45 314 l 32 326 l 32 364 q 95 528 73 412 q 133 642 123 528 l 171 743 l 196 768 m 183 654 l 95 301 l 95 288 l 120 288 l 272 351 l 272 377 q 209 654 272 481 l 183 654 m 562 74 l 575 74 l 600 49 l 600 36 l 562 36 l 562 74 z "},"5":{"ha":488,"x_min":-21,"x_max":405,"o":"m 362 922 l 384 922 l 405 901 l 405 868 l 341 868 l 96 815 l 139 602 l 128 591 l 128 581 l 171 389 l 192 389 q 384 186 357 389 l 394 123 q 277 -16 357 -16 l 160 -16 l 96 5 l 96 48 l 117 70 l 224 27 q 320 48 320 35 l 341 91 l 341 176 q 171 347 341 347 l 139 336 q 85 517 109 378 l 75 517 l 85 528 l 33 751 l 43 762 l 43 847 l 362 922 m 96 326 l 96 315 l 106 326 l 139 326 l 139 304 l 75 293 l 75 304 l 96 326 m -21 315 l 22 315 l 22 293 l -21 293 l -21 315 z "},"6":{"ha":661,"x_min":-734,"x_max":556,"o":"m 366 932 l 422 932 l 477 887 l 477 865 l 388 887 q 220 719 248 887 l 197 686 l 208 686 l 197 674 l 197 663 l 208 652 l 208 640 l 264 652 q 522 517 438 627 l 522 494 l 511 484 l 556 326 l 556 304 q 309 68 494 144 q 62 214 158 102 l 62 226 l 74 237 l 40 315 l 52 315 l 29 394 l 52 484 l 40 494 l 29 494 l 74 585 l 62 595 q 163 753 102 595 q 332 921 208 921 l 366 932 m 130 573 l 141 562 l 141 517 l 119 517 l 119 540 l 96 540 l 85 494 l 96 484 l 96 472 l 85 461 l 96 450 l 96 439 l 85 394 l 107 360 l 96 349 l 96 304 l 153 180 l 287 125 l 332 113 q 477 259 343 147 l 500 372 q 354 573 433 573 q 287 607 323 573 l 231 607 l 130 573 m -711 450 l -700 450 l -700 416 l -734 416 l -734 427 l -711 450 z "},"7":{"ha":688,"x_min":50,"x_max":651,"o":"m 346 1064 l 411 755 l 411 692 l 429 692 l 587 745 l 595 755 l 651 755 l 651 724 q 457 628 457 668 q 429 606 457 606 l 429 585 l 485 96 l 494 85 l 485 75 l 466 75 q 448 149 448 75 l 420 159 l 420 245 l 429 309 l 411 362 l 420 372 l 420 383 l 411 426 l 420 436 q 392 585 392 505 l 392 628 l 374 628 q 216 543 332 628 l 208 543 l 189 564 l 189 574 l 374 692 l 318 1011 q 124 915 267 1011 l 60 894 l 50 905 l 50 915 q 309 1064 50 977 l 346 1064 z "},"8":{"ha":688,"x_min":136,"x_max":644,"o":"m 305 974 q 465 742 465 816 l 465 724 q 448 680 465 680 l 456 671 l 456 662 l 376 519 q 590 368 590 448 q 644 288 612 368 l 635 261 l 644 261 q 492 92 592 92 l 483 83 l 483 74 q 243 386 243 109 q 296 475 265 475 l 296 492 q 162 600 220 508 l 136 707 q 198 894 180 880 q 305 974 238 974 m 269 911 q 198 760 198 871 l 189 751 l 180 724 l 189 715 l 189 627 l 243 573 l 252 582 q 314 528 252 564 q 430 715 349 528 q 314 903 349 903 l 269 911 m 323 466 l 287 404 q 323 225 287 225 q 456 127 394 127 l 456 136 l 465 127 l 474 127 q 590 208 550 127 l 590 279 q 519 386 566 386 q 412 475 443 475 l 376 466 l 323 475 l 323 466 z "},"9":{"ha":688,"x_min":58,"x_max":613,"o":"m 185 800 l 197 800 q 555 592 463 800 l 555 454 l 613 280 q 347 -78 471 -78 l 301 -43 q 405 3 301 -26 l 475 153 q 555 257 506 153 l 544 315 l 544 361 l 532 361 l 475 292 l 451 292 q 267 165 422 225 l 243 165 q 58 604 58 315 q 185 800 79 693 m 209 754 q 116 592 116 667 l 127 488 l 116 477 l 116 465 q 197 326 139 378 l 185 315 q 278 222 185 254 q 509 408 379 248 l 498 419 l 498 431 l 509 500 l 509 534 q 475 638 475 534 q 393 708 448 638 l 209 754 z "}," ":{"ha":240,"x_min":0,"x_max":0,"o":""},"!":{"ha":298,"x_min":80,"x_max":237,"o":"m 191 899 l 191 890 l 199 899 l 218 899 l 227 890 l 237 890 q 209 752 209 846 l 209 715 q 144 375 144 570 l 135 366 l 126 366 l 108 384 q 172 734 108 605 l 172 881 l 191 899 m 108 200 l 135 172 l 135 62 l 98 43 l 80 62 l 80 98 q 108 200 80 200 z "},"\"":{"ha":456,"x_min":58,"x_max":429,"o":"m 94 1063 l 130 1032 l 130 907 l 82 886 l 58 907 l 58 949 q 94 1063 58 1063 m 406 1079 l 429 1067 q 364 856 392 869 l 315 847 l 363 1011 q 406 1079 358 1055 z "},"#":{"ha":633,"x_min":-14,"x_max":646,"o":"m 228 859 l 221 849 l 221 839 l 228 781 l 221 540 l 277 540 q 311 569 277 569 l 325 569 l 325 559 l 318 550 l 318 540 l 394 559 l 401 550 q 383 551 452 550 l 431 541 l 452 705 l 446 714 l 452 714 l 446 724 l 446 801 l 452 811 l 446 821 l 446 869 l 459 888 l 473 888 l 480 840 l 473 840 l 480 830 l 473 782 l 473 753 l 480 541 l 487 551 l 543 551 l 543 541 q 487 512 543 512 l 500 387 l 495 379 l 450 370 l 452 337 l 500 342 l 494 290 l 494 271 l 480 193 l 487 193 l 480 184 l 480 164 l 487 97 l 466 77 l 446 164 l 459 241 l 459 251 q 446 319 459 319 l 452 328 q 425 502 446 502 l 426 518 l 491 540 l 484 540 q 318 501 484 523 l 311 492 l 304 492 l 235 501 l 242 492 l 242 482 q 201 -10 224 103 q 186 -68 192 -10 l 173 -68 q 152 -20 161 -68 q 180 163 180 60 l 180 772 l 193 791 l 193 733 l 201 733 l 193 810 l 186 820 l 193 849 l 186 859 l 193 859 l 228 859 m 193 550 l 193 473 l 208 492 l 201 550 l 193 550 m 632 174 q 646 145 646 174 l 646 136 l 639 136 l 632 174 m 339 -77 l 346 -77 l 367 -87 l 367 -106 l 353 -106 l 339 -87 l 339 -77 m -14 567 l -1 585 q 178 535 169 556 l 180 496 l 41 534 q -14 567 2 530 m 59 251 l 58 258 q 179 309 57 277 l 180 274 l 231 279 l 233 326 l 452 370 q 495 378 495 379 l 620 369 q 582 336 616 341 q 439 335 518 347 l 406 323 l 406 330 q 229 278 407 318 l 180 274 l 59 251 z "},"$":{"ha":588,"x_min":4,"x_max":496,"o":"m 293 1143 l 325 1140 l 341 942 l 329 932 l 338 920 l 336 899 l 323 890 l 332 878 l 318 770 l 313 575 l 272 427 l 283 426 l 271 416 l 255 298 l 264 286 l 252 277 l 249 255 l 258 243 l 257 233 l 246 233 l 256 222 l 254 211 l 236 159 l 226 159 q 206 336 207 161 q 278 633 235 387 q 297 1012 262 675 q 293 1143 283 1013 m 323 1010 q 403 975 403 996 l 403 939 l 389 939 l 376 951 l 363 951 q 203 820 203 909 l 203 796 q 469 701 217 751 l 496 654 l 483 642 l 483 618 l 496 547 q 416 380 446 380 q 123 285 326 335 l 111 296 l 111 309 l 123 320 l 123 332 l 111 332 l 18 320 l 4 332 l 4 344 q 84 380 18 380 l 137 380 l 217 368 q 416 547 366 368 l 429 558 l 429 582 q 389 665 429 621 l 350 654 q 137 832 137 707 l 123 844 q 323 1010 207 972 z "},"%":{"ha":981,"x_min":88,"x_max":958,"o":"m 833 494 q 952 378 909 477 l 943 372 q 958 227 947 235 l 936 201 l 943 193 l 941 185 q 788 77 869 59 q 627 256 728 90 l 617 296 l 627 300 l 628 308 l 625 338 q 751 483 650 463 q 833 494 801 502 m 683 408 l 668 329 l 658 323 l 665 315 l 664 307 l 654 302 l 688 250 q 709 222 684 228 q 765 142 707 210 q 820 107 761 121 q 885 168 824 127 l 903 261 q 819 468 925 444 q 683 408 764 467 m 666 1098 q 616 626 695 1093 l 599 579 l 604 566 l 578 481 l 556 372 l 553 322 l 543 311 l 541 299 q 484 -172 536 173 l 473 -182 l 442 -176 l 444 -163 l 465 -104 q 444 -49 436 -85 l 459 -14 l 452 -12 l 462 -2 l 509 344 l 517 380 l 527 391 l 530 403 l 522 405 l 532 415 l 543 464 l 537 477 l 540 490 l 550 500 l 545 514 l 555 525 l 547 526 l 591 657 l 640 1091 l 650 1101 l 666 1098 m 351 736 l 349 730 l 357 735 l 378 730 q 387 703 393 728 q 488 551 454 689 l 500 536 l 497 524 l 483 527 l 481 410 q 270 279 393 253 q 143 376 135 336 l 109 462 q 109 598 88 466 q 213 713 121 662 l 221 718 q 342 732 228 747 l 351 736 m 151 628 l 157 621 l 144 591 l 140 572 q 177 363 134 476 q 271 317 255 340 l 285 315 l 301 324 l 307 317 l 335 311 q 437 413 396 329 l 441 464 l 458 513 l 465 544 q 447 600 437 549 q 396 675 426 604 l 376 686 q 151 628 209 720 z "},"&":{"ha":0,"x_min":0,"x_max":0,"o":""},"'":{"ha":199,"x_min":12,"x_max":127,"o":"m 110 1104 l 127 1078 q 52 793 75 804 l 12 800 l 68 1021 q 110 1104 69 1088 z "},"(":{"ha":0,"x_min":0,"x_max":0,"o":""},")":{"ha":5,"x_min":0,"x_max":0,"o":""},"*":{"ha":0,"x_min":0,"x_max":0,"o":""},"+":{"ha":688,"x_min":-37,"x_max":554,"o":"m 262 792 q 258 553 291 786 l 246 530 l 252 523 l 236 482 l 224 427 l 227 401 l 218 397 l 216 391 q 205 154 224 326 l 196 149 l 167 155 l 168 161 l 182 191 q 157 221 153 203 l 168 237 l 161 239 l 170 243 l 183 417 l 187 435 l 196 440 l 197 446 l 190 448 l 199 452 l 203 476 l 197 484 l 199 490 l 208 494 l 201 502 l 210 507 l 203 508 l 231 571 l 239 791 l 248 795 l 262 792 m -35 520 q 182 524 -32 549 l 204 512 l 210 519 l 249 503 l 299 494 l 322 496 l 327 488 l 333 487 q 549 483 391 496 l 554 474 l 551 444 l 545 446 l 518 458 q 492 433 509 429 l 477 444 l 475 436 l 471 444 l 312 452 l 295 456 l 290 465 l 285 466 l 284 458 l 279 467 l 256 471 l 250 465 l 245 466 l 240 474 l 233 468 l 229 477 l 228 469 l 168 496 l -32 497 l -37 505 l -35 520 z "},",":{"ha":243,"x_min":16,"x_max":185,"o":"m 177 224 l 185 189 q 48 -83 70 -83 l 16 -59 l 121 153 q 177 224 139 224 z "},"-":{"ha":454,"x_min":8,"x_max":378,"o":"m 9 414 q 145 427 10 442 l 159 416 l 163 423 l 186 410 l 218 402 l 233 407 l 236 398 l 239 397 q 375 404 276 410 l 378 395 l 377 365 l 373 366 l 356 377 q 340 351 351 348 l 330 361 l 330 353 l 327 361 l 227 362 l 216 365 l 214 373 l 210 374 l 210 366 l 206 375 l 193 378 l 189 372 l 185 372 l 182 380 l 178 374 l 175 382 l 174 375 l 136 399 l 12 391 l 8 399 l 9 414 z "},".":{"ha":216,"x_min":33,"x_max":139,"o":"m 61 212 l 96 183 l 132 183 l 132 168 l 139 168 q 103 94 126 94 l 54 94 l 33 168 q 47 205 47 168 l 54 212 l 61 212 m 96 161 l 96 139 l 103 117 l 111 117 l 111 124 l 103 161 l 96 161 z "},"/":{"ha":227,"x_min":-35,"x_max":269,"o":"m 241 999 q 173 603 269 993 l 153 564 l 159 552 l 130 482 l 103 391 l 98 349 l 87 340 l 85 330 q 9 -64 76 224 l -1 -73 l -32 -66 l -29 -56 l -6 -7 q -26 41 -35 10 l -9 69 l -16 71 l -5 79 l 55 370 l 64 400 l 75 408 l 78 418 l 71 420 l 81 429 l 93 469 l 88 481 l 91 491 l 102 500 l 97 511 l 107 520 l 100 522 l 149 630 l 214 994 l 225 1002 l 241 999 z "},":":{"ha":378,"x_min":71,"x_max":292,"o":"m 291 784 l 248 747 l 243 708 l 224 709 l 223 702 q 131 749 128 723 l 138 804 l 237 820 q 283 800 235 804 l 292 791 l 291 784 m 219 749 l 190 752 l 160 746 l 159 739 l 169 738 l 218 742 l 219 749 m 195 322 q 117 241 191 285 q 75 300 71 256 l 77 315 q 167 332 80 339 l 195 322 z "},";":{"ha":310,"x_min":41,"x_max":267,"o":"m 164 675 l 211 641 l 258 641 l 258 624 l 267 624 q 220 538 250 538 l 155 538 l 127 624 q 146 667 146 624 l 155 675 l 164 675 m 211 615 l 211 590 l 220 564 l 229 564 l 229 573 l 220 615 l 211 615 m 202 313 l 210 277 q 73 5 95 5 l 41 29 l 146 241 q 202 313 164 313 z "},"<":{"ha":895,"x_min":14,"x_max":995,"o":"m 995 217 l 988 204 l 970 201 l 968 222 l 942 217 q 664 258 756 277 q 106 350 200 303 l 107 339 l 134 334 l 137 312 q 16 364 103 304 l 14 375 l 28 401 l 39 392 l 45 404 l 106 417 l 302 527 l 304 516 l 410 573 l 437 568 l 436 578 l 446 570 l 581 621 l 579 631 l 574 665 l 599 681 q 692 645 601 665 l 701 635 l 703 625 l 689 600 l 627 597 q 128 378 358 505 l 130 367 q 371 340 286 367 l 370 351 l 452 324 l 477 340 q 720 303 637 296 l 726 316 l 735 318 q 995 217 988 271 z "},"=":{"ha":502,"x_min":-52,"x_max":438,"o":"m -52 520 q 120 536 -50 546 l 138 527 l 142 533 l 173 522 l 213 515 l 231 519 l 235 512 l 240 511 q 411 521 286 524 l 415 513 l 414 486 l 409 486 l 387 496 q 368 472 381 470 l 355 481 l 354 474 l 350 481 l 224 479 l 211 481 l 207 489 l 203 490 l 202 483 l 198 490 l 180 493 l 176 487 l 171 488 l 167 495 l 162 489 l 158 496 l 158 490 l 110 510 l -48 499 l -52 507 l -52 520 m 436 350 q 264 347 433 324 l 248 358 l 242 352 l 212 366 l 173 375 l 154 372 l 151 380 l 146 381 q -25 386 100 373 l -28 393 l -26 420 l -21 420 l 0 408 q 21 431 7 434 l 33 421 l 34 428 l 38 420 l 163 412 l 176 409 l 180 401 l 184 400 l 185 407 l 189 399 l 207 395 l 212 401 l 216 400 l 220 392 l 225 398 l 229 390 l 229 397 l 276 372 l 435 371 l 438 363 l 436 350 z "},">":{"ha":636,"x_min":92,"x_max":598,"o":"m 92 719 l 99 762 l 111 760 l 121 738 l 127 748 l 133 747 l 166 722 l 178 721 l 183 731 q 481 623 252 691 l 503 588 l 576 580 q 597 513 598 556 q 538 465 557 463 q 417 391 477 385 q 302 350 373 342 q 147 269 194 264 l 148 291 l 264 376 q 310 414 264 392 l 315 402 l 321 401 l 435 433 q 546 518 544 503 q 417 565 530 553 l 412 576 l 412 587 l 406 576 q 131 693 271 656 l 115 728 l 103 707 l 98 719 l 92 719 z "},"?":{"ha":507,"x_min":72,"x_max":499,"o":"m 359 852 q 499 686 479 852 l 481 625 l 490 616 q 465 555 465 616 l 456 555 l 465 547 l 465 538 l 334 398 q 281 328 334 357 q 229 241 246 243 l 212 267 l 255 363 l 281 425 l 290 425 l 298 416 l 307 416 q 412 564 323 484 l 456 677 l 447 677 l 456 686 l 456 695 l 447 703 l 447 712 l 456 721 l 456 730 q 429 773 451 773 l 395 782 l 368 808 l 359 800 l 307 800 l 220 791 l 220 808 q 359 852 220 834 m 124 -12 l 142 -38 l 142 -46 q 106 -134 131 -134 l 90 -134 q 72 -107 72 -134 q 124 -12 98 -12 z "},"@":{"ha":791,"x_min":53,"x_max":746,"o":"m 323 879 l 438 879 q 566 807 438 849 l 669 699 l 682 711 l 707 663 l 694 651 q 746 483 718 651 q 566 123 694 144 l 553 135 q 438 52 538 102 l 374 52 q 104 279 104 183 q 53 459 75 279 l 66 531 l 53 627 l 155 831 l 323 879 m 106 612 l 120 600 l 120 587 l 93 524 l 106 524 l 93 512 l 93 450 q 201 224 137 224 q 378 100 201 162 q 433 75 433 96 q 664 362 664 193 q 718 475 684 362 l 705 487 l 718 487 q 555 749 674 659 q 487 800 548 774 l 446 787 l 446 825 l 338 825 l 324 837 q 106 612 106 762 m 361 769 l 391 769 l 460 635 q 513 514 473 570 l 590 540 l 597 540 l 597 514 l 529 495 l 597 311 l 590 311 q 544 355 559 320 l 552 355 q 490 489 506 489 l 315 457 l 292 457 q 262 342 282 371 l 269 336 q 223 228 269 307 l 239 190 l 239 177 l 223 164 l 208 164 l 193 266 q 269 457 231 328 l 254 470 l 254 476 q 292 578 282 476 q 361 769 361 715 m 319 534 l 327 509 l 319 490 q 479 534 479 517 q 393 699 456 544 q 319 534 365 699 z "},"A":{"ha":665,"x_min":88,"x_max":618,"o":"m 309 892 l 349 892 l 439 682 q 509 492 456 580 l 608 532 l 618 532 l 618 492 l 528 462 l 618 172 l 608 172 q 549 242 568 187 l 559 242 q 479 452 499 452 l 248 402 l 218 402 q 178 222 205 267 l 189 212 q 128 42 189 165 l 149 -18 l 149 -38 l 128 -58 l 109 -58 l 88 102 q 189 402 138 198 l 168 422 l 168 432 q 218 592 205 432 q 309 892 309 806 m 248 512 l 258 472 l 248 442 q 469 512 469 484 q 349 783 435 530 q 248 512 311 783 z "},"B":{"ha":520,"x_min":18,"x_max":479,"o":"m 369 852 q 461 806 461 852 l 479 760 l 470 640 l 479 585 l 304 418 q 452 335 452 385 l 443 279 l 452 279 l 424 159 l 433 159 q 276 49 374 49 l 147 104 l 156 58 l 128 12 l 156 12 l 156 3 l 138 -16 l 101 -16 l 101 -7 l 110 3 l 101 12 l 101 21 l 110 123 l 82 151 l 82 159 l 119 159 l 92 372 l 36 372 l 18 391 l 18 409 l 82 427 l 64 566 q 212 806 79 695 q 369 852 306 852 m 110 501 q 147 437 110 437 l 184 427 q 406 603 406 492 l 433 714 l 424 723 l 433 732 l 433 742 l 424 769 l 433 779 q 350 816 400 816 l 350 825 q 119 566 119 758 l 110 501 m 138 372 l 147 326 l 147 252 q 212 113 147 113 l 295 104 l 313 104 q 397 169 397 149 l 415 252 l 406 279 l 415 279 q 295 391 415 368 l 286 381 l 175 400 l 147 372 l 138 372 z "},"C":{"ha":547,"x_min":66,"x_max":484,"o":"m 414 816 q 484 746 484 816 l 474 736 l 465 736 l 444 756 l 425 756 l 414 746 l 405 746 l 395 756 l 395 766 l 355 746 l 345 756 l 335 756 q 156 637 156 724 q 116 547 156 583 q 256 269 136 281 l 444 239 l 444 219 l 435 209 l 435 199 l 305 219 l 295 189 l 256 189 q 166 259 256 216 q 116 358 131 296 q 77 388 77 358 l 86 458 l 66 458 q 176 756 100 751 q 414 816 361 816 z "},"D":{"ha":593,"x_min":47,"x_max":511,"o":"m 198 859 q 441 709 367 810 q 501 548 471 709 l 511 537 l 511 515 q 471 376 484 488 q 158 194 350 194 l 127 194 q 57 258 79 194 l 77 366 l 67 376 l 67 387 l 77 430 l 67 441 l 77 441 l 67 451 l 67 494 l 77 537 l 57 569 l 67 633 l 47 837 l 198 859 m 107 794 l 117 730 l 107 612 l 117 612 l 107 602 l 107 569 q 158 537 107 551 l 117 376 l 127 366 l 127 333 l 117 323 l 117 312 l 138 290 l 117 258 l 117 248 l 249 248 q 451 473 370 248 l 441 505 l 461 526 q 330 751 461 689 l 178 805 l 107 794 z "},"E":{"ha":781,"x_min":26,"x_max":746,"o":"m 153 891 l 183 876 q 206 891 183 891 q 334 869 221 879 l 408 876 q 498 861 426 861 l 656 831 l 663 823 l 663 816 l 648 801 l 596 808 l 521 808 q 423 831 494 831 l 423 823 l 416 831 l 349 831 l 303 823 l 176 846 l 161 846 l 138 703 l 146 666 q 123 644 146 644 l 131 606 l 131 576 l 101 479 l 146 479 l 273 456 l 408 463 l 454 456 l 521 479 q 566 433 526 450 l 566 426 l 551 411 l 528 411 l 393 433 l 349 418 l 341 426 l 334 418 l 334 411 l 288 426 l 281 418 l 273 418 l 221 441 l 214 433 l 198 433 l 138 448 l 101 448 l 101 418 l 109 389 l 101 381 l 109 343 l 109 321 l 101 126 l 109 96 l 191 96 l 221 103 q 318 73 280 73 q 386 96 373 73 l 686 43 l 731 58 l 746 36 l 739 14 l 663 14 l 656 21 l 648 21 l 648 14 l 469 43 q 393 66 469 54 l 334 43 q 206 66 256 43 l 146 51 l 109 66 l 109 58 q 86 21 103 21 l 63 21 l 63 43 l 78 43 l 78 51 l 71 58 l 71 66 l 78 73 l 78 81 l 56 141 l 78 313 l 71 389 l 71 448 q 26 471 26 448 l 71 479 l 71 501 l 131 884 l 153 891 m 349 591 l 378 568 l 378 546 l 363 546 q 341 583 363 564 l 349 591 m 48 -197 l 71 -197 l 86 -212 l 86 -227 l 63 -227 l 48 -212 l 48 -197 z "},"F":{"ha":511,"x_min":-211,"x_max":961,"o":"m 65 850 l 161 819 l 203 829 l 448 787 l 448 744 l 140 787 l 108 776 l 97 787 l 97 776 q 140 638 113 776 l 150 627 l 140 617 l 150 606 l 150 511 l 140 500 l 140 490 l 150 479 l 331 500 l 341 490 l 352 490 l 395 500 l 427 479 l 437 490 l 437 447 l 395 447 l 384 458 l 203 404 l 193 415 l 182 415 l 129 404 l 108 245 l 118 235 l 108 224 l 118 224 l 108 213 l 172 -20 q 150 -52 150 -20 l 129 -52 l 108 -31 l 118 -20 l 118 -9 l 54 171 l 65 181 l 65 192 l 54 192 l 76 309 l 65 351 l 86 404 l 76 415 l 76 426 l 86 458 l 76 468 l 97 490 l 97 500 l 86 511 l 86 522 l 97 522 l 44 840 l 54 850 l 65 850 m -190 543 l -179 532 l -179 511 l -211 511 l -211 522 l -190 543 m 579 12 l 589 12 l 600 1 l 611 1 l 643 12 l 675 -9 l 685 1 l 696 1 l 717 -20 l 717 -41 l 685 -41 l 685 -20 l 653 -41 l 632 -41 l 632 -20 l 621 -31 l 611 -31 l 579 -20 l 579 12 m 739 12 l 749 12 l 760 1 l 770 1 l 781 12 l 791 -20 l 844 -9 l 855 -20 l 855 -9 l 865 -20 l 876 -20 l 919 -9 l 919 -20 l 929 -9 l 961 -9 l 961 -20 l 940 -41 l 876 -31 q 844 -62 844 -31 l 833 -62 l 812 -41 l 802 -52 l 791 -52 l 739 -41 l 749 -31 l 749 -20 l 739 12 z "},"G":{"ha":673,"x_min":44,"x_max":615,"o":"m 425 888 l 469 888 l 481 877 l 492 877 l 481 821 l 347 799 l 335 810 l 324 810 q 100 486 100 771 l 89 273 q 290 138 89 180 q 380 116 290 116 q 425 60 401 65 l 458 60 q 570 138 521 60 l 570 273 q 391 385 570 374 l 380 385 l 369 374 l 357 374 l 347 385 l 335 385 l 223 374 l 212 385 l 212 396 q 313 429 255 429 l 347 429 l 357 418 l 369 429 l 436 429 q 615 307 615 382 l 615 161 q 447 4 615 57 q 44 262 44 135 l 44 441 l 56 452 l 56 463 l 44 463 q 145 754 84 754 q 302 844 198 844 l 425 888 z "},"H":{"ha":728,"x_min":12,"x_max":704,"o":"m 122 951 l 132 951 l 132 924 q 104 859 104 890 l 104 813 l 113 730 l 104 721 l 104 711 l 113 656 l 104 425 l 178 425 q 224 453 178 453 l 242 453 l 242 444 l 233 435 l 233 425 l 334 444 l 344 435 q 492 481 411 435 l 556 471 l 584 629 l 574 637 l 584 637 l 574 647 l 574 721 l 584 730 l 574 739 l 574 785 l 593 804 l 612 804 l 621 758 l 612 758 l 621 749 l 612 703 l 612 675 l 621 471 l 630 481 l 704 481 l 704 471 q 630 444 704 444 l 648 324 l 630 305 l 630 287 l 639 241 l 630 241 l 639 232 l 639 213 l 621 139 l 630 139 l 621 130 l 621 112 l 630 47 l 602 28 l 574 112 l 593 186 l 593 195 q 574 259 593 259 l 584 269 q 547 435 574 435 l 473 416 l 464 425 l 454 425 q 233 389 454 409 l 224 379 l 214 379 l 122 389 l 132 379 l 132 370 q 76 -100 109 7 q 58 -156 64 -100 l 39 -156 q 12 -110 23 -156 q 48 66 48 -35 l 48 647 l 67 665 l 67 610 l 76 610 l 67 684 l 58 693 l 67 721 l 58 730 l 67 730 l 48 822 l 58 878 l 58 933 q 122 951 101 933 m 67 435 l 67 361 l 85 379 l 76 435 l 67 435 z "},"I":{"ha":262,"x_min":47,"x_max":209,"o":"m 193 935 l 209 935 l 209 910 q 176 838 177 873 l 144 838 q 119 902 119 842 l 193 935 m 152 635 q 184 619 152 619 l 184 595 l 173 587 l 173 578 l 184 578 l 163 506 l 173 498 l 173 457 l 141 360 l 152 352 l 152 344 l 141 311 l 152 271 q 100 28 102 178 l 90 20 l 58 20 l 47 53 l 58 77 l 47 77 l 58 85 l 47 125 l 47 142 l 90 311 q 121 409 90 366 l 111 409 l 131 490 l 121 498 l 131 578 l 131 619 l 152 635 z "},"J":{"ha":660,"x_min":1,"x_max":639,"o":"m 320 819 q 408 736 408 792 q 534 454 534 637 q 559 395 559 454 l 546 325 l 559 278 q 332 -75 559 80 l 307 -75 q 56 90 56 20 l 56 102 l 81 125 q 219 7 148 35 l 219 20 l 332 -28 q 496 172 455 95 l 496 254 l 484 266 l 509 407 l 471 501 l 484 513 l 484 525 q 307 736 398 736 l 294 795 l 320 819 m 625 -414 l 639 -428 l 639 -441 l 625 -455 l 612 -455 l 598 -441 l 598 -428 l 612 -414 l 625 -414 m 11 -437 l 20 -437 l 20 -442 l 5 -457 l 1 -457 l 1 -447 l 11 -437 z "},"K":{"ha":642,"x_min":53,"x_max":559,"o":"m 116 861 l 129 861 q 167 810 167 861 q 129 646 154 646 l 142 633 l 142 621 l 129 494 l 180 469 q 433 760 180 537 l 446 760 l 458 696 l 433 696 l 433 684 l 446 671 l 446 659 q 281 507 406 659 l 268 494 q 218 418 218 494 q 408 203 328 366 q 534 89 466 203 l 559 64 l 559 26 l 509 26 q 420 127 509 70 q 192 355 217 355 l 205 342 l 205 317 l 192 317 q 142 406 142 317 l 129 406 q 104 330 129 330 l 116 317 l 116 0 l 91 -25 l 78 -25 l 53 0 l 66 127 l 53 266 l 78 380 l 66 519 l 116 861 z "},"L":{"ha":497,"x_min":47,"x_max":456,"o":"m 221 1015 l 238 998 l 238 989 l 221 1006 l 221 1015 m 73 850 l 99 833 l 81 763 q 108 467 99 699 l 90 450 l 99 441 l 90 415 l 117 267 l 108 171 l 117 171 l 108 162 l 108 154 l 117 66 l 203 84 l 212 75 l 221 75 q 360 102 250 93 l 456 93 l 456 75 l 439 58 l 387 58 l 351 66 l 238 41 l 160 41 l 90 23 q 56 102 90 73 l 81 206 l 73 214 l 73 223 l 81 250 l 73 250 l 81 258 l 81 267 l 47 415 q 64 458 47 458 l 47 833 l 73 850 z "},"M":{"ha":1058,"x_min":16,"x_max":930,"o":"m 251 853 l 274 853 l 380 716 l 368 716 l 473 499 q 602 271 602 339 l 614 271 q 637 339 614 339 l 626 397 q 661 556 646 556 l 649 568 q 696 796 665 756 l 696 853 l 731 853 l 755 830 l 743 819 l 895 339 q 930 225 916 339 l 919 214 l 895 214 q 731 682 874 214 l 731 728 l 708 728 l 696 625 l 708 625 q 614 134 654 134 l 591 134 q 438 454 532 392 q 333 659 368 536 l 309 682 l 321 693 q 274 750 298 745 l 262 750 q 204 442 262 673 l 122 168 q 87 134 87 168 l 98 88 l 98 77 l 87 77 l 16 111 l 134 385 l 122 397 l 122 408 l 204 625 l 192 659 l 251 853 z "},"N":{"ha":651,"x_min":47,"x_max":588,"o":"m 549 716 q 588 632 588 733 q 401 51 460 146 l 411 51 l 421 79 l 440 79 q 372 -43 440 41 l 361 -43 l 342 -24 l 352 -15 l 342 -5 l 342 60 l 283 285 l 292 285 l 263 407 l 273 435 l 263 435 l 273 445 l 253 594 l 244 594 q 96 60 136 309 l 67 60 q 47 89 67 89 q 214 594 96 342 l 204 623 q 253 716 219 623 l 263 726 l 273 726 l 292 707 l 283 642 q 382 79 313 342 l 391 79 q 460 332 421 246 l 450 332 l 490 416 l 479 445 q 559 698 549 609 l 549 707 l 549 716 z "},"O":{"ha":714,"x_min":61,"x_max":633,"o":"m 283 785 l 379 785 q 486 721 379 758 l 570 625 l 581 636 l 602 594 l 591 583 q 633 435 610 583 q 486 117 591 136 l 475 127 q 379 53 463 99 l 326 53 q 104 254 104 169 q 61 414 79 254 l 72 477 l 61 562 l 146 742 l 283 785 m 114 551 l 125 541 l 125 530 l 104 477 l 114 477 l 104 467 l 104 414 q 189 222 137 222 q 326 117 189 168 q 368 96 368 114 q 549 339 549 195 q 591 435 566 339 l 581 446 l 591 446 q 464 668 558 590 q 411 711 459 690 l 379 700 l 379 732 l 294 732 l 283 742 q 114 551 114 677 z "},"P":{"ha":593,"x_min":16,"x_max":552,"o":"m 16 1038 l 56 1038 l 56 1016 l 16 1016 l 16 1038 m 243 930 l 284 930 q 538 696 538 838 l 552 633 l 552 611 q 472 482 504 570 q 324 387 440 479 l 190 408 l 190 344 l 177 195 l 190 184 l 190 174 q 109 77 183 77 l 109 88 l 123 130 l 109 141 l 109 152 q 150 344 123 344 l 136 376 l 150 408 l 136 408 q 43 451 64 408 l 43 462 q 150 558 150 462 q 177 675 153 675 l 163 686 l 163 728 l 243 930 m 271 867 l 190 504 q 271 462 190 462 l 271 451 q 499 686 499 494 q 404 824 472 686 l 324 867 l 271 867 z "},"Q":{"ha":787,"x_min":18,"x_max":770,"o":"m 533 917 q 688 630 666 777 l 712 422 l 649 365 l 629 309 l 550 247 l 554 231 l 574 219 q 768 155 708 192 l 770 113 q 702 113 756 90 l 668 148 q 438 109 495 203 q 273 86 357 35 q 124 246 281 99 q 58 520 22 457 q 130 819 18 636 l 167 879 q 533 917 389 1004 m 450 871 l 446 887 l 436 893 q 217 848 249 901 l 176 805 q 101 412 71 631 q 240 189 196 216 l 366 126 l 461 191 l 419 190 l 409 196 l 405 212 l 389 208 l 329 245 l 347 275 l 425 268 l 429 252 l 439 246 q 597 370 509 226 l 603 379 q 619 631 691 587 q 513 861 652 685 q 450 871 463 891 z "},"R":{"ha":659,"x_min":90,"x_max":568,"o":"m 318 777 q 568 620 568 719 q 405 318 531 318 l 361 318 l 210 342 l 210 330 q 394 125 327 125 q 557 41 394 97 l 557 28 l 547 16 l 557 4 l 557 -20 l 535 -20 q 513 16 513 -20 l 481 28 l 437 16 q 264 161 346 47 q 166 294 166 258 l 144 294 l 134 64 l 123 64 l 134 53 l 134 28 l 123 16 l 123 4 l 144 4 q 112 -56 131 -56 l 90 -56 l 90 -8 q 210 741 113 741 l 318 777 m 155 452 l 155 415 l 188 378 l 275 403 l 361 378 l 405 391 l 437 378 q 503 512 503 440 l 503 548 q 318 729 503 663 q 199 596 199 692 q 155 452 155 524 m 492 669 l 524 620 q 492 669 508 669 z "},"S":{"ha":610,"x_min":-28,"x_max":450,"o":"m 282 882 q 359 845 359 866 l 359 808 l 346 808 l 334 821 l 320 821 q 165 684 165 775 l 165 659 q 424 561 178 614 l 450 511 l 437 498 l 437 474 l 450 400 q 372 227 403 227 q 87 127 285 180 l 75 140 l 75 152 l 87 165 l 87 177 l 75 177 l -16 165 l -28 177 l -28 189 q 49 227 -16 227 l 101 227 l 178 214 q 372 400 323 214 l 385 412 l 385 437 q 346 524 385 478 l 308 511 q 101 696 101 566 l 87 709 q 282 882 170 842 z "},"T":{"ha":619,"x_min":75,"x_max":544,"o":"m 315 910 l 366 846 l 544 808 l 544 770 l 519 770 l 519 758 l 341 808 l 303 555 l 315 441 l 315 428 l 303 365 l 315 288 l 315 276 l 239 35 l 227 -79 l 201 -79 l 176 -54 q 252 161 206 119 l 239 174 l 239 212 l 252 225 l 239 238 l 252 301 l 239 314 l 265 365 l 252 365 l 265 377 l 265 390 l 239 631 l 277 732 l 277 821 l 214 821 l 201 834 l 189 821 l 75 821 l 75 846 q 227 885 75 878 l 290 872 q 315 910 290 910 z "},"U":{"ha":764,"x_min":-68,"x_max":667,"o":"m 614 897 l 627 897 q 667 817 650 897 q 601 362 601 500 l 601 282 q 400 -12 524 -12 q 293 -39 400 -39 q 119 135 119 34 l 119 149 l 133 322 l 66 790 q 119 857 92 851 l 133 844 l 146 844 q 119 724 138 724 l 199 389 l 173 175 l 227 68 q 307 28 260 28 q 507 175 507 76 l 547 282 l 534 429 l 574 603 l 587 603 l 574 616 l 601 764 l 587 777 l 587 790 l 614 897 m -28 189 l -28 149 l -41 149 l -68 175 l -54 189 l -28 189 z "},"V":{"ha":728,"x_min":72,"x_max":612,"o":"m 564 844 l 612 831 l 612 808 l 589 783 l 600 772 l 600 760 l 576 688 l 576 663 l 589 652 q 505 15 553 505 l 469 -33 l 469 -190 q 396 -237 444 -237 q 336 -117 336 -157 q 240 135 240 9 q 180 375 180 224 q 72 699 72 599 l 96 699 l 204 459 q 252 363 220 459 l 240 351 l 240 339 l 288 99 q 396 -130 378 -125 q 432 146 432 -93 l 444 159 l 456 159 l 444 171 q 541 760 516 462 l 576 795 l 553 820 l 564 831 l 564 844 m 360 699 l 385 699 l 385 663 l 360 663 l 360 699 z "},"W":{"ha":882,"x_min":94,"x_max":850,"o":"m 798 868 l 819 868 l 850 837 l 829 816 q 798 837 829 837 l 798 868 m 798 826 l 819 826 l 840 763 q 777 469 819 746 q 692 165 745 433 l 682 155 l 671 155 q 545 595 610 305 l 535 595 l 503 522 l 514 490 q 430 260 482 343 q 294 -24 416 179 l 294 -35 l 252 -35 q 199 71 252 16 q 125 448 199 237 l 136 448 q 94 711 107 546 l 125 711 l 115 700 l 115 690 l 125 700 l 146 700 l 136 690 l 168 606 l 157 595 q 231 312 180 312 l 231 176 q 283 50 249 50 l 399 322 q 493 606 436 490 l 482 606 l 514 680 l 503 690 l 503 721 l 524 721 l 514 732 l 514 742 l 524 753 l 535 753 q 587 680 560 747 l 577 680 l 598 574 l 587 574 q 661 270 661 391 q 777 700 688 270 l 798 826 z "},"X":{"ha":741,"x_min":1,"x_max":623,"o":"m 555 843 l 589 819 l 600 831 l 623 831 l 623 795 q 475 663 564 795 l 464 651 l 452 651 l 464 639 l 464 627 l 327 435 l 486 62 l 475 26 l 429 26 q 281 351 349 351 l 270 351 q 156 182 218 182 q 133 122 156 122 l 111 146 q 270 410 111 189 l 270 446 l 168 614 l 99 819 l 111 831 l 156 831 l 258 602 q 315 494 284 494 l 418 675 q 555 843 418 739 m 28 801 l 28 759 l 1 787 l 15 801 l 28 801 z "},"Y":{"ha":637,"x_min":-1139,"x_max":600,"o":"m 137 854 q 276 673 276 742 l 380 477 q 438 595 412 477 l 543 842 l 589 842 l 600 829 l 531 608 l 427 425 l 427 387 l 421 361 l 437 212 q 442 -30 431 100 l 396 -30 l 385 9 l 369 412 l 230 621 l 230 633 l 241 646 l 230 646 l 218 659 q 102 795 127 802 l 102 833 l 91 842 l 102 829 l 137 854 m -1094 1214 l -1094 1147 l -1139 1192 l -1116 1214 l -1094 1214 z "},"Z":{"ha":562,"x_min":-142,"x_max":511,"o":"m -15 869 l -6 869 l -6 852 l -31 827 l -40 836 l -40 844 l -15 869 m 206 827 l 248 802 l 256 810 l 265 810 l 494 760 l 511 735 l 511 718 l 460 627 q 299 475 320 475 q 214 342 299 456 q 130 182 214 239 l 113 141 l 130 141 q 189 166 157 141 l 206 166 l 274 150 l 307 150 q 367 166 367 150 q 468 107 445 142 l 452 91 l 444 91 l 359 124 l 316 107 l 248 116 l 96 99 l 87 107 l 87 99 q 54 124 54 112 q 163 333 110 205 l 172 375 q 222 442 202 375 q 375 593 249 442 q 460 702 398 593 l 460 710 q 359 743 460 743 q 172 785 359 755 l 172 819 l 206 827 m -49 668 l -49 651 l -74 643 l -82 651 l -82 660 l -49 668 m -125 618 l -116 609 l -116 601 l -142 601 l -125 618 m -108 601 l -100 601 l -100 585 l -125 576 l -125 585 l -108 601 z "},"[":{"ha":338,"x_min":14,"x_max":317,"o":"m 62 943 l 88 920 l 70 828 q 98 436 88 743 l 79 413 l 88 401 l 79 367 l 106 170 l 98 44 l 106 44 l 98 32 l 98 22 l 106 -94 l 197 -71 l 207 -83 l 216 -83 q 216 -57 246 -60 l 317 -68 l 317 -92 l 299 -115 l 244 -115 l 234 -129 l 152 -129 l 79 -152 q 43 -47 79 -85 l 70 91 l 62 101 l 62 113 l 70 148 l 62 148 l 70 159 l 70 170 l 34 367 q 52 425 34 425 l 34 920 l 62 943 m 40 925 l 48 935 l 14 1001 q 45 1084 48 1034 l 119 1074 l 200 1082 l 212 1073 l 266 1079 l 285 1063 l 286 1045 l 186 1026 q 185 1046 216 1031 l 176 1044 l 167 1035 l 75 1043 l 72 954 l 73 945 l 82 938 l 73 937 l 40 925 z "},"\\":{"ha":275,"x_min":-2,"x_max":265,"o":"m 18 1227 q 125 772 44 1237 l 125 721 l 134 710 l 138 623 l 154 511 l 168 465 l 163 449 l 164 437 q 265 -19 201 319 l 260 -35 l 231 -46 l 229 -32 l 228 31 q 193 71 197 33 l 195 111 l 186 109 l 193 122 l 123 460 l 118 498 l 124 512 l 121 526 l 115 522 l 121 538 l 113 586 l 105 596 l 103 608 l 109 624 l 99 634 l 105 648 l 98 646 l 93 787 l -2 1206 l 3 1221 l 18 1227 z "},"]":{"ha":322,"x_min":-11,"x_max":281,"o":"m 234 -12 l 208 11 l 227 103 q 203 495 210 188 l 222 518 l 213 530 l 222 564 l 197 761 l 207 887 l 198 888 l 207 899 l 208 910 l 199 1025 l 109 1003 l 99 1015 l 90 1015 q 89 989 59 992 l -11 1002 l -11 1025 l 7 1048 l 62 1048 l 73 1061 l 154 1060 l 227 1083 q 262 979 227 1017 l 234 840 l 243 829 l 243 818 l 233 783 l 242 783 l 233 771 l 233 760 l 268 564 q 249 506 267 506 l 262 10 l 234 -12 m 256 5 l 248 -3 l 281 -71 q 249 -153 246 -102 l 176 -142 l 94 -150 l 83 -141 l 28 -146 l 9 -130 l 9 -112 l 108 -94 q 110 -113 79 -98 l 119 -113 l 127 -103 l 219 -112 l 223 -23 l 223 -15 l 214 -7 l 222 -5 l 256 5 z "},"^":{"ha":688,"x_min":72,"x_max":394,"o":"m 366 882 l 359 886 l 372 894 l 351 906 q 294 1100 336 1004 l 301 1104 l 294 1104 l 286 1108 q 265 1199 286 1187 q 201 1124 254 1198 l 172 1044 l 172 1040 l 180 1037 q 151 1005 161 1005 l 86 926 l 72 926 q 136 1033 72 959 q 172 1112 136 1082 q 229 1195 172 1153 q 265 1234 229 1208 q 309 1219 294 1234 l 309 1167 l 330 1151 q 380 941 359 990 l 372 938 l 372 930 l 387 906 l 387 902 l 380 898 l 394 890 l 394 882 l 366 878 l 366 882 z "},"_":{"ha":694,"x_min":20,"x_max":587,"o":"m 20 -55 q 229 -32 22 -26 l 250 -42 l 256 -35 l 293 -47 l 342 -52 l 364 -47 l 369 -56 l 374 -56 q 582 -41 429 -41 l 587 -49 l 585 -79 l 580 -79 l 553 -68 q 530 -96 546 -98 l 514 -87 l 513 -94 l 509 -86 l 356 -92 l 340 -90 l 335 -82 l 330 -81 l 329 -89 l 324 -81 l 302 -79 l 296 -85 l 291 -85 l 286 -77 l 280 -83 l 275 -75 l 275 -83 l 216 -61 l 24 -78 l 20 -70 l 20 -55 z "},"`":{"ha":321,"x_min":67,"x_max":284,"o":"m 85 951 q 173 846 109 966 l 172 829 l 180 829 l 182 802 l 194 772 l 206 762 l 201 755 l 202 751 q 284 644 233 728 l 279 635 l 254 620 l 252 623 l 252 644 q 221 642 225 631 l 224 656 l 217 652 l 222 659 l 166 741 l 163 752 l 168 759 l 166 763 l 159 758 l 165 766 l 159 779 l 152 779 l 151 782 l 155 789 l 148 789 l 153 796 l 147 792 l 145 837 l 67 935 l 72 943 l 85 951 z "},"a":{"ha":583,"x_min":-8,"x_max":1270,"o":"m 353 798 l 364 798 l 389 777 l 389 690 l 376 680 l 412 551 l 400 539 l 400 518 l 412 442 l 400 432 l 545 453 l 593 442 l 593 421 l 568 399 l 437 399 q 412 367 412 399 l 448 249 l 437 184 l 448 55 q 424 22 424 55 l 389 12 l 376 22 l 389 119 l 364 389 l 353 389 q 160 259 279 389 l 76 33 q 40 0 40 33 l 28 -10 l 3 -10 l -8 43 l 40 109 l 28 162 q 184 389 68 164 l 184 421 l 172 432 q 353 798 321 798 m 232 410 l 245 421 l 256 410 l 364 432 l 364 496 q 340 615 364 573 l 353 615 l 340 690 q 232 410 316 690 m 998 410 l 1008 410 l 1008 379 l 987 379 l 998 410 m 1228 410 l 1239 410 l 1270 400 l 1270 379 l 1260 379 l 1228 410 z "},"b":{"ha":602,"x_min":14,"x_max":468,"o":"m 187 987 l 284 987 q 435 771 412 987 l 435 728 q 111 512 267 512 l 111 479 l 122 448 l 111 393 l 111 339 l 122 328 l 122 318 l 111 318 l 133 145 q 414 328 258 145 l 403 339 l 403 350 l 414 382 q 317 490 399 490 l 273 479 l 262 479 l 252 490 l 187 469 l 176 469 l 176 479 l 231 534 l 338 534 q 457 437 396 534 l 446 426 l 446 415 l 468 328 q 187 113 378 174 l 176 102 l 111 102 q 68 231 82 102 l 79 264 l 68 382 l 68 469 l 58 479 l 58 490 l 68 501 l 14 523 l 14 545 l 25 555 l 25 566 l 36 555 l 47 555 l 68 577 l 68 631 q 90 761 71 761 l 79 771 l 79 782 q 155 966 122 954 l 187 987 m 155 847 l 165 847 l 111 707 l 111 685 l 122 631 l 100 631 l 100 620 l 111 610 l 100 599 l 100 577 l 111 577 q 349 718 270 577 q 382 804 375 718 q 295 944 382 919 l 241 944 q 155 847 155 893 z "},"c":{"ha":578,"x_min":71,"x_max":528,"o":"m 452 839 q 528 763 528 839 l 517 752 l 507 752 l 485 774 l 463 774 l 452 763 l 441 763 l 431 774 l 431 785 l 387 763 l 376 774 l 365 774 q 169 643 169 738 q 125 545 169 584 q 278 240 147 254 l 485 208 l 485 186 l 474 175 l 474 164 l 332 186 l 321 153 l 278 153 q 180 229 278 183 q 125 338 142 271 q 82 371 82 338 l 93 447 l 71 447 q 191 774 107 768 q 452 839 393 839 z "},"d":{"ha":705,"x_min":78,"x_max":642,"o":"m 262 827 q 556 656 467 772 q 629 472 592 656 l 642 460 l 642 435 q 593 276 608 404 q 213 68 446 68 l 176 68 q 90 141 117 68 l 115 264 l 102 276 l 102 288 l 115 337 l 102 349 l 115 349 l 102 362 l 102 411 l 115 460 l 90 496 l 102 570 l 78 803 l 262 827 m 151 754 l 163 680 l 151 546 l 163 546 l 151 533 l 151 496 q 213 460 151 475 l 163 276 l 176 264 l 176 227 l 163 215 l 163 203 l 189 178 l 163 141 l 163 129 l 323 129 q 568 387 470 129 l 556 423 l 581 448 q 421 705 581 633 l 237 766 l 151 754 z "},"e":{"ha":711,"x_min":43,"x_max":833,"o":"m 230 897 l 241 897 l 261 878 q 397 897 308 897 l 407 897 l 418 888 l 428 897 l 479 888 l 521 897 q 677 829 618 897 l 677 820 l 593 850 l 469 850 l 459 840 q 323 859 412 859 l 210 810 l 199 810 l 210 801 l 199 791 l 199 782 l 210 772 l 199 762 l 199 753 l 220 667 l 199 589 l 199 570 l 241 542 l 271 561 l 418 542 l 418 551 q 532 513 532 528 l 583 523 l 625 523 l 625 484 l 583 465 l 562 484 l 552 475 l 479 504 l 469 494 l 385 494 l 323 513 l 323 504 l 313 513 l 302 513 l 261 504 l 199 513 l 189 504 l 189 494 l 199 494 l 189 484 l 189 475 q 210 321 195 321 l 199 311 l 199 292 l 178 129 q 199 53 199 129 l 210 53 l 199 43 l 199 33 l 210 -14 l 261 -14 l 469 -35 l 593 -24 l 625 -44 l 677 -35 l 781 -35 l 833 -24 l 833 -63 l 823 -63 l 812 -54 l 802 -54 q 677 -82 802 -73 l 667 -73 l 614 -82 l 532 -63 l 479 -82 q 199 -54 334 -54 l 178 -73 l 84 -44 l 94 -14 l 136 -14 l 146 -24 l 157 -24 l 157 -14 l 136 129 l 157 226 q 125 245 125 226 l 136 273 l 125 283 l 125 292 l 146 350 l 125 427 l 146 446 l 136 456 l 136 465 l 146 475 l 136 475 l 157 513 l 105 513 l 53 504 l 43 513 l 43 551 l 105 561 l 146 551 l 168 551 l 136 753 q 230 897 172 875 z "},"f":{"ha":479,"x_min":9,"x_max":479,"o":"m 95 961 l 111 961 l 173 906 l 212 906 l 314 875 l 385 883 l 416 867 l 439 875 q 479 851 439 851 l 479 844 l 471 836 l 471 828 l 447 836 l 369 828 l 314 851 l 307 844 l 298 844 q 119 914 135 885 l 87 922 l 79 922 l 87 914 l 87 758 l 79 711 l 87 671 l 87 640 l 150 632 l 150 640 l 189 625 l 212 632 l 353 601 l 447 616 l 455 609 l 455 585 l 338 570 l 275 585 l 173 577 l 173 585 l 165 577 l 157 577 l 95 585 l 103 577 l 103 491 l 111 437 l 103 437 l 119 413 l 111 389 l 134 53 l 142 29 l 134 22 l 134 14 l 142 -9 l 134 -18 l 126 -18 q 111 6 111 -18 l 56 6 l 56 37 l 79 60 l 87 53 l 103 53 l 95 60 l 95 68 l 103 68 q 71 327 71 220 l 64 327 l 71 351 l 64 374 l 71 374 l 64 382 l 64 389 l 71 546 l 64 554 l 64 562 l 71 585 q 9 656 66 613 l 33 663 l 56 656 l 56 679 l 40 765 l 56 883 l 48 883 l 56 906 l 40 953 l 95 961 z "},"g":{"ha":756,"x_min":47,"x_max":721,"o":"m 500 843 l 539 831 l 539 797 l 487 774 l 383 774 q 215 695 215 774 q 99 501 170 695 q 293 159 99 387 q 358 68 324 68 q 500 148 500 83 q 656 444 656 300 l 539 444 l 526 456 l 513 444 l 410 444 l 383 467 q 449 501 383 486 l 500 490 l 513 490 l 526 501 l 539 490 l 591 501 q 721 456 721 490 l 721 410 l 630 216 q 604 148 604 216 l 435 11 q 229 159 289 11 q 47 501 47 355 q 189 786 47 565 q 500 843 250 827 z "},"h":{"ha":749,"x_min":19,"x_max":728,"o":"m 695 1154 l 703 1145 l 711 1154 l 728 1154 l 728 1145 l 703 1120 l 695 1128 l 695 1154 m 553 1070 l 562 1070 q 587 1028 576 1070 l 578 1020 l 595 954 l 587 954 l 595 945 l 595 870 q 612 778 595 810 l 603 745 l 603 728 l 628 728 q 662 753 628 753 l 662 728 l 653 736 l 645 736 q 612 694 645 717 l 603 661 l 620 603 l 603 578 l 612 570 l 587 319 q 628 119 614 119 l 620 111 l 628 27 l 620 -15 l 595 -15 l 595 10 q 553 294 595 105 l 553 344 l 570 503 l 570 528 l 578 536 l 570 545 l 570 661 l 562 661 q 403 595 492 595 q 319 561 403 576 l 77 444 l 52 302 l 61 294 l 61 286 l 52 260 q 102 43 71 43 l 77 -106 l 85 -140 l 85 -149 l 69 -149 l 52 -132 l 52 -56 l 44 -23 l 52 10 l 52 18 l 19 269 l 27 302 l 19 311 l 27 353 l 27 436 l 36 444 l 27 452 l 27 461 q 61 669 61 498 l 36 762 l 44 770 l 27 878 l 61 878 q 94 861 61 861 l 85 720 l 94 711 l 94 703 l 85 694 l 94 653 l 94 519 l 102 519 l 311 586 q 478 661 410 653 q 562 694 478 676 l 570 762 l 553 870 l 562 870 l 553 878 l 553 945 l 545 1037 l 553 1070 z "},"i":{"ha":298,"x_min":131,"x_max":1234,"o":"m 791 843 l 835 843 l 835 817 q 791 843 791 828 m 131 964 l 140 964 q 183 841 163 964 l 175 789 l 175 745 l 183 710 l 175 701 q 218 412 192 466 l 175 228 q 140 281 140 237 q 166 465 166 362 l 157 509 l 166 509 q 131 780 151 509 l 140 850 l 131 964 m 397 581 l 406 581 l 406 554 l 380 554 l 380 563 l 397 581 m 984 379 l 1001 379 l 1019 361 l 992 344 l 984 353 l 984 379 m 1225 1 l 1234 1 l 1225 -26 l 1208 -26 l 1208 -17 l 1225 1 z "},"j":{"ha":409,"x_min":35,"x_max":431,"o":"m 243 802 q 312 739 312 782 q 410 520 410 662 q 431 475 431 520 l 420 420 l 431 384 q 252 112 431 231 l 233 112 q 35 239 35 185 l 35 248 l 55 266 q 164 175 108 196 l 164 184 l 252 148 q 380 302 348 243 l 380 366 l 371 375 l 391 484 l 361 557 l 371 566 l 371 574 q 233 739 304 739 l 222 785 l 243 802 z "},"k":{"ha":574,"x_min":62,"x_max":522,"o":"m 120 861 l 132 861 q 166 816 166 861 q 132 668 154 668 l 142 656 l 142 646 l 132 532 l 178 509 q 407 770 178 571 l 418 770 l 430 713 l 407 713 l 407 702 l 418 691 l 418 680 q 269 543 382 680 l 258 532 q 212 464 212 532 q 384 271 311 416 q 499 169 437 271 l 522 146 l 522 112 l 475 112 q 395 203 475 152 q 189 408 211 408 l 200 396 l 200 373 l 189 373 q 142 452 142 373 l 132 452 q 109 385 132 385 l 120 373 l 120 90 l 97 66 l 85 66 l 62 90 l 74 203 l 62 328 l 85 430 l 74 555 l 120 861 z "},"l":{"ha":778,"x_min":10,"x_max":745,"o":"m 113 957 l 147 957 l 155 948 l 164 948 l 147 854 l 155 854 l 138 795 q 155 641 155 743 l 147 606 l 164 555 l 155 547 l 155 538 l 190 290 l 181 264 l 198 213 l 198 162 l 241 153 l 437 162 l 634 127 l 728 145 l 745 119 l 660 94 l 429 127 l 241 111 l 207 119 l 164 119 q 138 170 164 170 l 147 256 q 130 290 147 290 l 138 299 l 121 435 l 130 435 q 104 598 116 452 l 121 658 l 113 667 l 113 880 l 104 914 l 113 957 m 10 589 l 27 589 l 27 564 l 10 581 l 10 589 z "},"m":{"ha":936,"x_min":25,"x_max":846,"o":"m 235 894 l 256 894 l 351 768 l 340 768 l 435 568 q 551 357 551 420 l 562 357 q 583 420 562 420 l 572 473 q 604 621 590 621 l 593 631 q 635 841 608 804 l 635 894 l 667 894 l 688 873 l 677 862 l 814 420 q 846 315 833 420 l 835 304 l 814 304 q 667 736 795 304 l 667 778 l 646 778 l 635 684 l 646 684 q 562 231 597 231 l 541 231 q 404 526 488 469 q 309 715 340 602 l 288 736 l 298 747 q 256 799 278 795 l 246 799 q 193 515 246 728 l 120 262 q 88 231 88 262 l 99 189 l 99 178 l 88 178 l 25 210 l 130 463 l 120 473 l 120 484 l 193 684 l 183 715 l 235 894 z "},"n":{"ha":680,"x_min":46,"x_max":629,"o":"m 619 798 l 629 789 l 629 771 l 609 771 l 609 745 q 593 678 593 773 q 404 131 464 220 l 414 131 l 425 157 l 444 157 q 375 43 444 121 l 365 43 l 345 60 l 355 69 l 345 78 l 345 140 l 285 352 l 296 352 l 265 467 l 275 493 l 265 493 l 275 501 l 255 643 l 245 643 q 96 140 136 374 l 66 140 q 46 167 66 167 q 216 643 96 406 l 205 669 q 255 758 220 669 l 265 766 l 275 766 l 296 749 l 285 688 q 385 157 315 405 l 395 157 q 464 396 425 315 l 455 396 l 494 475 l 484 501 q 564 740 554 657 l 554 749 l 554 758 q 619 798 570 798 z "},"o":{"ha":629,"x_min":48,"x_max":572,"o":"m 310 947 q 519 790 427 947 l 506 777 q 572 528 551 539 l 545 476 l 559 463 l 559 450 q 362 201 486 201 q 75 450 270 201 l 48 515 l 61 528 l 61 542 l 48 594 q 192 895 48 819 q 310 947 262 947 m 114 735 l 114 589 l 100 576 l 114 562 l 114 549 l 100 536 l 169 456 q 210 416 169 416 q 319 296 210 391 q 414 256 319 256 q 496 389 414 292 l 496 562 q 305 895 476 895 q 114 735 218 871 z "},"p":{"ha":552,"x_min":-5,"x_max":511,"o":"m -5 1114 l 34 1114 l 34 1091 l -5 1091 l -5 1114 m 214 999 l 254 999 q 498 745 498 899 l 511 677 l 511 654 q 434 515 465 608 q 292 411 404 511 l 162 434 l 162 366 l 150 204 l 162 193 l 162 181 q 85 77 156 77 l 85 89 l 98 135 l 85 146 l 85 158 q 124 366 98 366 l 111 400 l 124 434 l 111 434 q 20 481 42 434 l 20 492 q 112 481 124 492 q 150 722 126 722 l 137 734 l 137 781 l 214 999 m 240 930 l 162 538 q 228 481 162 492 l 271 459 q 460 734 460 527 q 411 873 434 734 l 292 930 l 240 930 z "},"q":{"ha":746,"x_min":22,"x_max":802,"o":"m 273 816 q 513 663 431 769 l 623 511 l 603 434 l 612 379 l 583 292 l 592 281 l 612 281 q 783 326 722 326 l 802 292 q 752 260 802 267 l 713 271 q 562 129 562 231 q 453 31 536 31 q 273 85 453 43 q 102 271 104 203 q 22 543 22 343 l 22 609 q 273 816 128 816 m 233 739 l 222 751 l 212 751 q 73 609 73 666 l 63 554 q 182 205 63 365 q 382 96 339 96 l 503 107 l 543 205 l 513 183 l 503 183 l 492 194 l 483 183 l 422 183 l 422 216 l 483 249 l 492 237 l 503 237 q 562 412 562 256 l 562 423 q 463 630 534 630 q 282 762 463 690 q 233 739 233 762 z "},"r":{"ha":673,"x_min":57,"x_max":614,"o":"m 252 962 q 502 881 349 962 l 599 784 q 510 606 599 664 l 502 599 l 486 599 q 414 558 486 568 q 365 510 407 530 l 357 518 l 357 534 l 373 534 l 373 542 l 365 542 q 284 494 294 519 q 517 250 460 342 q 614 136 614 211 l 606 128 l 589 128 q 460 258 589 142 l 340 397 l 284 445 l 236 461 l 236 502 l 228 542 l 236 550 l 244 542 l 252 542 l 276 558 l 284 550 l 292 550 q 559 720 559 650 l 567 720 q 421 881 567 787 q 284 929 292 916 q 179 720 238 929 l 187 720 l 163 623 l 172 623 q 106 332 131 496 l 106 252 l 98 219 l 106 211 l 106 203 q 98 222 107 222 l 105 214 l 90 133 l 98 125 l 73 109 l 57 109 l 57 205 q 252 962 131 844 z "},"s":{"ha":404,"x_min":33,"x_max":353,"o":"m 183 844 l 193 834 l 202 834 l 202 844 q 305 803 305 826 l 287 783 q 221 803 221 789 q 136 710 136 783 l 136 659 q 221 628 136 635 l 221 637 q 287 565 238 637 q 343 514 304 565 l 353 514 l 353 431 q 117 256 353 376 l 108 266 l 98 266 l 70 256 q 33 276 70 276 l 33 297 l 42 307 l 42 317 l 89 307 q 268 410 200 326 l 268 390 l 315 452 q 221 555 315 503 l 127 607 q 80 669 80 640 q 183 844 80 784 m 269 -8 l 269 -47 l 243 -47 l 243 -35 l 269 -8 z "},"t":{"ha":538,"x_min":9,"x_max":505,"o":"m 248 939 l 275 930 l 275 912 q 248 868 248 912 l 257 868 q 452 903 343 868 l 487 903 l 505 886 q 399 850 505 870 q 257 832 399 838 l 257 823 l 248 788 l 257 788 l 248 779 l 248 770 l 257 735 l 248 699 l 257 699 l 212 425 l 231 292 l 221 88 l 212 79 l 186 79 l 186 141 l 195 150 l 195 159 l 186 168 l 195 168 l 186 177 l 186 239 l 195 283 l 177 389 l 186 398 l 186 407 l 177 416 l 186 505 l 186 585 l 195 575 l 203 575 l 212 629 l 203 637 l 203 655 l 212 664 l 203 673 l 203 690 l 212 823 l 177 823 l 79 797 l 71 806 q 18 770 53 770 l 9 779 l 9 806 q 133 859 106 859 l 212 859 l 212 877 l 203 886 q 248 939 216 939 z "},"u":{"ha":593,"x_min":63,"x_max":532,"o":"m 490 828 l 500 828 q 532 761 518 828 q 480 379 480 494 l 480 312 q 323 65 420 65 q 240 43 323 43 q 104 189 104 104 l 104 200 l 115 345 l 63 738 q 104 794 83 790 l 115 783 l 125 783 q 104 682 119 682 l 167 401 l 146 222 l 188 133 q 250 99 215 99 q 407 222 407 139 l 438 312 l 428 435 l 459 581 l 469 581 l 459 593 l 480 716 l 469 727 l 469 738 l 490 828 z "},"v":{"ha":673,"x_min":124,"x_max":588,"o":"m 547 1006 l 588 996 l 588 975 l 567 954 l 577 944 l 577 934 l 557 872 l 557 851 l 567 841 q 495 295 536 715 l 464 254 l 464 120 q 402 79 444 79 q 351 182 351 149 q 269 398 269 291 q 217 604 217 474 q 124 882 124 796 l 144 882 l 237 676 q 279 593 252 676 l 269 583 l 269 573 l 309 367 q 402 172 387 175 q 433 408 433 203 l 444 418 l 454 418 l 444 429 q 526 934 505 678 l 557 964 l 536 985 l 547 996 l 547 1006 m 372 882 l 392 882 l 392 851 l 372 851 l 372 882 z "},"w":{"ha":960,"x_min":167,"x_max":938,"o":"m 232 828 q 351 392 323 392 q 427 701 351 515 l 416 701 l 438 807 l 427 807 q 482 882 456 876 l 493 882 l 504 871 l 504 861 l 493 850 l 515 850 l 515 818 l 504 807 l 536 732 l 526 732 q 623 445 584 616 l 743 168 q 797 296 779 168 l 797 435 q 873 722 849 435 l 862 732 l 895 818 l 884 828 l 905 828 l 916 818 l 916 828 l 905 839 l 938 839 q 895 573 925 672 l 905 573 q 829 190 829 358 q 775 83 775 134 l 732 83 l 732 94 q 591 381 605 300 q 504 616 536 467 l 515 648 l 482 722 l 471 722 q 340 275 404 428 l 330 275 l 319 286 q 232 594 264 557 q 167 892 189 875 l 189 956 l 210 956 l 232 828 z "},"x":{"ha":597,"x_min":-49,"x_max":452,"o":"m 395 730 l 423 711 l 433 721 l 452 721 l 452 692 q 329 589 403 692 l 319 579 l 310 579 l 319 570 l 319 560 l 206 409 l 338 117 l 329 88 l 291 88 q 168 343 225 343 l 159 343 q 64 211 115 211 q 45 163 64 163 l 26 182 q 159 390 26 216 l 159 418 l 74 551 l 17 711 l 26 721 l 64 721 l 149 541 q 197 456 170 456 l 281 598 q 395 730 281 648 m -30 702 l -30 673 l -49 692 l -39 702 l -30 702 z "},"y":{"ha":515,"x_min":45,"x_max":380,"o":"m 45 829 l 57 831 q 100 793 91 838 q 94 639 117 644 l 108 630 l 111 618 l 121 503 l 171 489 q 347 794 160 551 l 358 796 l 380 742 l 357 738 l 360 726 l 374 717 l 376 706 q 255 541 340 699 l 246 528 q 214 450 201 518 q 176 420 199 425 l 190 412 l 195 389 l 183 387 q 140 323 163 347 l 136 359 q 127 351 151 355 l 141 342 l 197 59 l 178 32 l 168 29 l 140 47 l 129 163 l 94 286 l 96 392 l 60 514 l 45 829 z "},"z":{"ha":619,"x_min":-63,"x_max":596,"o":"m 65 975 l 74 975 l 74 958 l 48 932 l 39 941 l 39 949 l 65 975 m 288 932 l 331 906 l 339 915 l 348 915 l 579 863 l 596 838 l 596 821 l 545 726 q 382 572 404 572 q 296 435 382 552 q 211 273 296 330 l 194 230 l 211 230 q 271 256 239 230 l 288 256 l 357 238 l 391 238 q 450 256 450 238 q 553 195 529 231 l 536 178 l 528 178 l 442 212 l 399 195 l 331 204 l 176 187 l 168 195 l 168 187 q 134 212 134 200 q 245 427 191 296 l 254 469 q 305 538 284 469 q 459 692 332 538 q 545 804 481 692 l 545 812 q 442 846 545 846 q 254 889 442 858 l 254 923 l 288 932 m 31 769 l 31 752 l 5 743 l -3 752 l -3 760 l 31 769 m -46 718 l -37 709 l -37 701 l -63 701 l -46 718 m -29 701 l -20 701 l -20 684 l -46 675 l -46 684 l -29 701 z "},"{":{"ha":5,"x_min":0,"x_max":0,"o":""},"|":{"ha":218,"x_min":68,"x_max":189,"o":"m 150 1178 q 172 686 189 1175 l 157 636 l 167 622 l 149 535 l 139 420 l 146 368 l 134 355 l 133 343 q 145 -147 151 212 l 133 -160 l 92 -157 l 93 -142 l 109 -80 q 71 -26 68 -65 l 85 12 l 74 14 l 86 24 l 84 385 l 87 424 l 98 435 l 100 450 l 90 449 l 101 462 l 104 511 l 96 525 l 97 538 l 108 551 l 98 565 l 111 575 l 100 577 l 132 716 l 117 1166 l 129 1179 l 150 1178 z "},"}":{"ha":5,"x_min":0,"x_max":0,"o":""},"~":{"ha":5,"x_min":0,"x_max":0,"o":""},"":{"ha":5,"x_min":0,"x_max":0,"o":""},"":{"ha":0,"x_min":0,"x_max":0,"o":""},"":{"ha":4,"x_min":0,"x_max":0,"o":""},"":{"ha":2062,"x_min":-4,"x_max":2047,"o":"m 163 1023 l 179 1023 q 214 981 214 1004 q 151 916 214 940 l 144 906 l 144 897 l 189 897 l 201 899 l 214 893 q 182 874 214 874 l 160 878 l 128 874 q 116 887 116 878 q 189 960 116 925 l 192 972 q 163 998 192 998 q 128 969 155 998 l 125 969 l 119 975 l 119 988 q 163 1023 140 1023 m 261 1023 l 277 1023 q 330 944 330 1010 q 283 874 317 874 l 271 871 q 220 954 220 887 l 220 960 q 258 1019 234 1019 l 261 1023 m 384 1023 l 403 1023 q 444 954 444 1004 l 448 950 q 412 881 436 881 l 387 871 q 337 950 337 886 l 337 963 q 384 1023 351 1023 m 501 1023 q 551 969 532 1023 q 488 871 543 871 l 473 868 l 463 871 q 507 890 463 881 q 526 928 523 901 l 526 937 l 494 928 q 454 969 454 939 l 454 981 q 501 1023 454 1017 m 40 1013 l 65 1013 l 81 1010 l 81 1007 l 75 1000 l 75 1004 l 72 1000 l 59 1000 l 56 1004 l 53 1000 l 40 1000 l 40 1013 m 236 950 l 236 941 q 267 887 247 887 l 271 890 l 274 890 l 283 887 q 309 931 309 911 l 309 972 q 280 1004 296 999 l 274 1004 l 274 1007 q 236 950 236 995 m 353 944 q 384 887 353 907 l 387 890 l 397 887 q 429 935 412 888 l 429 956 q 391 1007 429 987 q 353 944 353 996 m 485 991 l 482 991 l 479 994 l 475 994 l 473 972 q 498 944 477 944 q 526 975 522 944 l 526 985 l 507 1004 l 492 1004 q 485 991 485 1004 m 34 994 l 46 994 l 46 988 l 37 975 l 40 963 l 37 960 l 34 960 l 34 994 m 1095 994 l 1095 991 l 1097 994 l 1129 994 q 1196 966 1178 994 l 1196 954 q 1183 947 1196 947 l 1183 944 q 1202 928 1192 928 l 1196 918 l 1205 918 l 1211 935 l 1224 928 q 1215 922 1224 922 l 1211 918 l 1211 916 q 1217 899 1217 916 l 1249 884 q 1240 855 1249 861 l 1242 824 l 1242 817 q 1217 742 1242 800 l 1211 742 q 1198 761 1198 748 l 1192 761 q 1170 701 1175 731 l 1173 698 l 1177 698 l 1177 701 l 1208 688 l 1215 707 q 1246 635 1228 699 l 1249 635 q 1271 704 1249 667 l 1268 704 l 1271 707 l 1271 723 l 1265 767 l 1268 770 l 1271 770 q 1252 830 1252 812 q 1265 897 1255 872 l 1287 890 l 1274 909 l 1278 912 l 1278 916 q 1261 931 1269 918 q 1316 960 1301 931 q 1362 969 1327 966 l 1480 960 l 1480 950 l 1482 954 l 1486 954 l 1498 941 l 1495 937 l 1495 935 l 1498 925 l 1511 925 q 1524 944 1524 931 l 1543 944 l 1546 947 l 1549 947 q 1580 887 1558 937 l 1584 887 l 1599 897 l 1603 897 q 1625 884 1613 884 l 1634 890 q 1640 878 1640 890 l 1656 878 l 1669 887 l 1681 878 l 1688 878 q 1697 890 1697 878 l 1707 890 l 1710 878 l 1723 878 q 1735 890 1723 890 l 1748 874 l 1751 874 q 1757 884 1757 874 l 1761 887 l 1776 887 q 1839 868 1776 872 l 1887 843 l 1909 817 l 1921 720 q 1896 666 1921 684 q 1881 685 1881 672 l 1877 685 q 1864 644 1868 685 q 1849 590 1858 644 l 1849 536 q 1773 502 1849 516 l 1757 492 l 1738 505 l 1713 496 l 1700 508 l 1685 496 l 1678 496 q 1672 508 1678 508 l 1662 508 q 1656 498 1656 508 l 1647 496 q 1631 511 1639 511 l 1609 498 l 1593 517 l 1577 505 q 1568 524 1568 505 l 1552 530 l 1552 527 l 1555 524 q 1505 454 1527 455 l 1473 445 l 1457 448 l 1391 448 l 1379 445 l 1366 448 l 1331 448 l 1293 479 l 1293 483 l 1290 483 l 1287 479 l 1284 483 l 1280 483 q 1205 442 1205 483 q 1192 426 1192 435 l 1167 426 l 1142 420 l 1116 420 q 1053 454 1053 429 q 994 540 994 512 l 990 536 l 987 536 q 956 555 970 555 l 918 555 l 902 559 l 905 540 l 902 527 l 908 527 l 902 505 l 895 505 q 883 524 895 524 l 883 527 q 899 534 899 527 l 899 540 l 895 536 l 892 536 l 883 543 l 883 534 l 880 534 l 880 543 l 883 562 l 829 562 q 807 571 819 562 l 791 571 l 782 559 l 779 555 l 772 555 q 747 571 755 571 l 725 562 q 671 581 708 562 l 668 578 l 665 578 l 621 581 l 545 568 q 520 581 532 581 l 501 568 l 473 568 q 416 631 431 602 l 378 672 l 356 672 l 353 669 l 349 672 l 328 672 l 302 666 l 293 666 q 236 710 236 676 l 236 713 q 290 761 236 753 l 321 761 l 330 754 l 340 761 l 343 758 l 347 761 l 384 761 q 397 789 391 761 q 469 859 462 859 l 520 859 q 545 871 533 871 l 576 862 l 612 865 q 627 859 627 865 l 652 862 l 681 859 l 713 868 l 750 859 l 776 868 l 779 868 q 807 859 795 868 l 810 859 l 836 865 l 861 859 l 895 862 l 908 859 l 911 862 l 914 862 l 918 859 l 921 859 l 949 865 l 956 859 q 990 884 990 859 q 1028 925 1011 925 l 1034 944 q 1041 931 1041 944 q 1060 975 1048 931 q 1095 994 1078 994 m 892 963 l 895 963 q 905 928 895 945 l 902 928 l 889 935 l 892 963 m 1205 944 l 1211 944 l 1211 935 l 1205 941 l 1205 944 m 1047 922 l 1050 922 l 1057 928 l 1057 931 l 1047 922 m 1249 935 l 1255 935 l 1255 928 l 1240 925 l 1249 935 m 34 931 l 37 931 l 37 925 l 40 925 l 40 931 l 43 931 l 43 893 l 40 890 l 40 887 l 43 887 l 40 884 l 40 843 l 43 840 l 40 836 l 40 663 l 37 644 l 40 631 l 37 628 l 37 625 l 40 622 l 40 618 l 37 606 l 40 597 l 37 593 l 46 590 l 46 587 l 37 587 l 34 426 l 18 426 l 18 470 l 21 473 l 18 483 l 28 723 l 24 723 l 28 732 l 34 928 l 34 931 m 914 925 l 918 925 l 924 918 l 911 916 l 914 925 m 1362 916 l 1369 903 l 1375 909 l 1375 922 l 1369 922 l 1362 916 m 918 912 l 921 909 l 921 906 q 914 893 914 906 l 911 897 l 908 897 l 911 899 l 911 903 l 908 906 l 908 909 l 918 912 m 1356 884 l 1356 878 l 1366 874 q 1400 897 1385 880 l 1391 899 q 1362 884 1371 895 l 1356 884 m 908 890 l 924 890 l 924 881 l 908 884 l 908 890 m 1356 843 l 1366 843 q 1394 868 1366 849 l 1391 871 q 1356 843 1371 867 m 677 830 l 675 830 l 627 840 l 621 840 q 602 811 614 839 l 599 811 q 576 824 588 811 l 564 827 l 564 811 l 551 811 l 549 824 l 551 840 l 539 843 q 511 830 525 842 q 479 846 479 830 l 473 846 q 454 821 473 840 q 435 795 454 812 l 431 773 l 435 726 l 429 720 q 460 622 454 624 l 460 616 l 475 616 q 488 641 481 616 l 498 641 l 523 622 l 555 625 l 555 628 q 539 647 539 640 q 561 672 539 654 l 580 666 l 580 672 l 586 672 l 595 663 l 595 660 l 589 650 l 589 647 q 605 631 605 647 l 605 628 l 614 635 l 646 631 l 662 641 l 671 641 q 690 618 690 629 l 709 618 q 719 628 709 628 l 722 631 l 722 635 l 719 637 l 722 650 l 728 650 q 769 625 753 625 q 813 644 813 635 q 820 666 814 666 l 817 688 l 817 723 l 820 726 l 820 729 l 817 729 l 826 751 l 829 751 q 836 735 836 751 l 839 735 l 839 761 q 829 789 839 777 l 836 808 l 829 817 l 836 824 l 836 827 q 823 833 823 827 l 798 827 l 779 843 l 738 833 q 722 849 722 833 l 722 852 l 715 852 q 677 830 689 842 m 56 852 l 62 852 l 65 849 l 68 852 l 75 852 l 75 846 l 62 846 l 62 840 q 75 830 62 830 l 72 827 l 72 821 l 75 817 l 75 814 l 62 814 l 62 821 l 68 821 l 68 824 l 56 824 l 59 827 l 56 830 l 56 852 m 1050 843 l 1044 836 l 1044 830 l 1053 840 l 1053 843 l 1050 843 m 1066 843 l 1078 830 q 1095 840 1095 834 l 1091 843 l 1066 843 m 851 783 l 854 754 l 848 707 q 864 631 858 685 q 873 618 873 631 l 877 616 l 902 616 q 911 637 907 637 l 908 641 l 908 672 l 914 672 q 927 650 920 672 l 946 628 l 949 628 l 959 635 l 968 635 l 971 631 l 975 631 l 975 660 l 981 694 l 981 758 l 984 761 l 977 780 l 981 783 l 981 786 q 952 814 981 814 l 952 817 q 930 780 930 811 l 933 777 l 930 773 l 914 773 q 902 840 914 806 q 867 821 867 840 q 851 783 861 814 m 1353 814 l 1360 792 l 1362 792 q 1385 802 1374 802 l 1388 802 l 1388 799 l 1381 799 l 1388 792 l 1394 799 l 1398 799 l 1400 767 l 1400 758 l 1398 761 l 1394 761 l 1398 764 l 1398 777 l 1372 792 l 1356 783 l 1341 799 l 1324 786 l 1306 795 l 1299 795 l 1284 767 l 1287 758 l 1284 758 l 1290 732 l 1290 729 l 1284 729 l 1293 710 l 1293 707 l 1284 713 l 1284 710 l 1290 691 l 1287 691 l 1299 672 l 1303 675 l 1306 675 q 1356 660 1347 669 l 1372 669 q 1385 660 1385 667 l 1404 660 l 1413 672 l 1432 675 l 1432 672 q 1442 666 1432 666 l 1463 672 l 1461 675 l 1461 682 l 1467 694 l 1470 745 q 1451 799 1461 799 l 1438 795 q 1410 811 1421 795 l 1407 814 q 1391 840 1400 814 l 1385 840 q 1366 821 1368 840 l 1353 814 m 586 836 l 593 830 l 595 833 l 595 836 l 586 836 m 1060 786 l 1047 786 l 1044 789 l 1041 789 l 1031 720 l 1034 707 l 1022 688 l 1022 682 q 1038 672 1031 682 l 1031 656 l 1041 650 l 1038 647 l 1038 635 l 1050 622 q 1069 647 1069 640 l 1072 647 q 1088 637 1072 637 q 1101 631 1088 631 l 1110 622 l 1126 622 q 1142 637 1142 627 l 1148 637 l 1148 653 l 1139 679 q 1154 720 1144 679 q 1139 764 1154 742 l 1139 783 q 1116 817 1139 806 l 1091 817 q 1066 799 1066 817 q 1060 786 1066 786 m 65 811 l 65 808 l 59 802 l 56 802 l 65 811 m 580 795 l 593 795 l 599 789 l 599 773 l 583 754 l 567 764 q 551 754 567 757 l 539 773 l 557 792 l 567 792 l 570 789 l 574 789 l 580 795 m 1852 792 l 1845 780 l 1849 764 l 1849 742 q 1855 701 1849 715 l 1852 698 l 1862 691 l 1868 691 l 1874 717 l 1874 726 l 1871 789 l 1852 792 m 574 780 l 576 767 l 580 767 l 589 773 l 586 783 l 580 783 l 576 780 l 574 780 m 551 773 l 557 767 l 564 767 l 564 780 l 557 780 l 551 773 m 1514 780 q 1498 761 1514 763 l 1498 713 l 1508 704 l 1511 707 l 1514 694 l 1520 694 l 1520 698 l 1517 720 l 1520 720 l 1517 723 l 1524 758 q 1514 780 1519 780 m 1571 735 l 1571 742 l 1574 745 l 1574 748 l 1571 764 l 1555 761 l 1546 767 l 1530 720 l 1530 717 l 1533 694 l 1536 694 l 1549 704 l 1552 704 l 1558 688 l 1562 688 q 1571 701 1571 688 l 1568 710 l 1571 713 l 1577 713 q 1603 688 1577 705 l 1606 691 l 1606 723 l 1609 723 q 1631 669 1622 723 l 1634 669 q 1647 704 1640 704 l 1656 704 l 1662 688 l 1688 723 l 1688 729 q 1675 751 1688 740 l 1672 767 l 1666 767 l 1659 761 l 1662 758 l 1666 758 l 1662 745 l 1656 745 l 1653 754 l 1656 758 l 1656 764 q 1650 748 1650 764 l 1644 748 l 1640 767 l 1637 767 q 1609 742 1624 762 q 1603 773 1603 750 q 1596 758 1596 773 q 1584 745 1584 758 l 1571 735 m 59 773 l 65 773 l 75 770 l 75 767 l 68 767 l 59 770 l 59 773 m 1700 761 l 1697 748 l 1700 748 l 1697 745 l 1697 742 l 1700 729 l 1694 701 q 1704 688 1704 701 l 1710 688 l 1716 704 l 1716 739 q 1726 745 1716 745 l 1726 748 l 1710 761 l 1700 761 m 1763 751 l 1763 742 q 1757 720 1763 720 l 1761 710 l 1763 710 l 1763 717 l 1770 717 l 1770 707 l 1776 707 l 1776 710 l 1770 751 l 1763 751 m 1719 698 l 1723 694 l 1748 704 l 1748 735 l 1751 739 l 1748 748 l 1744 748 q 1729 707 1740 748 l 1719 698 m 1811 739 l 1808 735 l 1808 710 l 1799 710 l 1795 726 l 1789 726 l 1786 704 l 1792 704 l 1792 701 l 1795 704 l 1801 704 q 1808 694 1808 704 l 1814 694 q 1820 704 1814 704 q 1811 739 1818 739 m 248 735 l 248 726 l 252 723 l 255 723 l 252 735 l 248 735 m 375 723 l 375 717 l 387 713 l 387 723 l 381 729 l 375 723 m 583 732 l 586 732 q 593 723 593 732 l 583 707 l 583 701 q 595 694 595 701 l 595 691 q 576 682 595 686 q 542 698 542 688 l 542 701 q 555 729 542 722 l 570 726 l 574 726 l 583 732 m 1650 729 l 1656 729 l 1662 723 l 1662 713 l 1659 713 l 1650 723 l 1650 729 m 557 713 l 557 701 l 561 701 l 561 713 l 557 713 m 68 710 l 72 710 l 72 691 l 68 691 l 68 710 m 1341 694 l 1347 694 l 1356 685 l 1353 682 l 1341 682 l 1341 694 m 921 691 l 921 688 l 911 679 l 911 682 l 921 691 m 1381 691 l 1388 691 l 1388 685 l 1375 682 l 1375 685 l 1381 691 m 1767 679 l 1776 666 l 1782 675 l 1782 682 l 1776 688 l 1767 679 m 59 682 l 72 682 l 72 679 l 59 675 l 59 682 m 53 669 q 59 653 59 669 l 72 653 l 72 647 l 65 641 q 59 650 65 650 l 56 650 l 59 647 l 56 616 l 56 600 l 50 593 l 43 593 l 43 600 l 53 600 l 53 628 l 56 641 l 53 653 l 56 656 l 56 660 l 53 669 m 1078 590 l 1078 587 l 1085 587 l 1116 597 l 1114 606 l 1107 606 q 1078 590 1091 606 m 53 593 l 56 590 l 59 590 l 56 587 l 56 584 l 59 574 l 56 565 l 59 565 l 72 553 l 65 553 q 59 562 59 553 l 56 562 l 56 555 l 53 555 l 53 593 m 1095 581 l 1095 574 l 1107 574 l 1114 581 l 1114 584 l 1095 581 m 62 578 l 72 574 l 65 568 l 62 571 l 62 578 m 50 555 l 53 555 l 53 543 l 50 540 l 53 536 l 46 536 l 46 540 l 50 555 m 59 543 l 65 543 l 72 536 l 65 536 l 59 543 m 56 530 l 59 530 l 62 508 l 56 508 l 56 530 m 62 496 l 68 496 l 68 492 l 59 492 l 59 489 q 68 483 68 489 l 65 479 l 62 479 l 59 483 l 59 479 l 62 477 l 56 477 l 53 492 l 62 496 m 886 489 l 889 489 l 889 483 l 892 483 l 892 489 l 899 489 l 899 486 l 892 477 l 895 473 l 895 464 l 883 464 l 889 470 l 886 473 l 886 489 m 151 454 q 173 442 168 454 l 173 439 q 154 416 173 422 l 138 439 q 151 454 144 453 m 328 448 l 343 448 l 375 445 l 375 442 q 366 435 375 435 l 368 433 l 366 416 l 366 414 q 381 404 366 406 l 400 410 l 403 410 q 425 401 414 410 l 429 404 l 431 404 l 431 401 l 429 397 l 429 395 q 435 322 435 395 l 438 322 l 438 332 l 441 332 q 457 313 457 320 l 460 315 l 466 315 l 466 309 q 457 303 457 309 l 454 303 l 425 300 l 412 303 l 403 300 l 393 306 l 334 300 l 324 303 l 324 313 q 347 322 324 320 l 347 338 l 349 357 l 347 372 l 349 372 l 347 376 l 347 379 l 349 397 q 340 433 347 433 l 330 429 l 324 439 l 328 448 m 624 448 q 633 423 633 446 l 633 401 l 631 397 l 633 395 l 633 391 l 631 388 l 637 363 l 643 363 l 665 395 l 662 395 l 659 391 l 656 395 l 656 407 l 671 410 l 703 410 l 719 407 l 719 395 q 668 370 694 395 q 700 319 689 321 l 703 319 l 719 322 l 725 315 l 719 300 l 715 303 l 713 300 l 706 300 l 703 303 l 694 300 l 662 303 l 608 300 l 605 300 l 595 309 q 618 319 595 319 l 614 379 l 618 388 l 614 388 l 618 391 l 618 395 q 605 433 618 433 l 602 433 l 599 429 l 595 429 l 589 445 l 593 448 l 624 448 m 981 448 l 990 448 l 1022 445 l 1022 442 l 1013 420 l 1015 401 l 1013 397 l 1015 395 l 1019 395 l 1022 407 l 1025 404 l 1028 404 l 1047 410 l 1060 410 l 1072 401 l 1082 404 l 1082 401 l 1078 391 l 1082 391 l 1078 388 l 1085 366 l 1082 341 l 1085 332 l 1082 328 l 1082 322 l 1085 322 q 1091 332 1085 332 l 1095 332 q 1104 322 1095 322 l 1104 315 l 1107 315 l 1110 319 l 1114 319 l 1116 315 l 1116 309 l 1076 300 l 1063 303 l 1060 300 l 1057 300 l 1041 306 l 984 300 l 975 303 l 975 313 q 996 322 975 320 l 994 325 l 994 332 l 996 334 l 994 338 l 996 360 l 996 363 l 994 366 l 996 370 l 996 372 l 994 382 l 996 401 l 994 414 l 996 426 l 990 433 l 987 429 l 981 429 l 975 435 l 975 442 l 981 448 m 122 416 l 125 414 l 125 410 l 141 414 l 144 414 l 147 410 l 157 414 l 170 404 l 170 303 q 160 271 170 288 l 163 269 l 135 259 q 94 290 94 264 l 94 309 l 116 313 l 119 313 l 125 290 l 119 284 l 132 281 l 151 288 l 147 290 l 151 306 l 151 391 l 141 395 l 132 391 l 113 395 l 106 395 l 106 407 q 122 416 106 414 m 192 414 l 192 410 l 195 414 l 198 414 q 229 388 229 414 l 229 332 l 242 319 q 271 347 254 322 l 274 351 l 277 351 l 274 353 l 274 357 l 277 370 q 252 395 277 388 l 248 397 l 248 401 q 267 414 255 414 q 299 388 299 414 l 299 382 l 296 370 l 299 360 l 296 360 l 299 351 l 296 347 l 296 344 l 299 334 l 296 325 l 299 322 l 302 322 l 302 325 q 321 313 321 319 l 321 309 l 315 300 l 305 303 l 283 300 l 274 313 l 233 297 q 204 351 212 297 l 208 379 l 182 391 l 179 407 l 192 414 m 930 414 q 968 382 968 409 q 949 366 962 366 q 937 379 940 368 l 940 395 l 937 395 q 895 347 895 378 l 895 319 l 927 319 q 946 309 946 317 l 940 303 l 845 303 l 845 313 q 877 322 845 319 l 880 332 l 877 334 l 880 366 l 877 382 l 880 382 l 870 395 l 867 395 l 851 391 l 848 395 l 848 404 l 854 410 l 880 410 l 895 407 l 895 397 l 892 395 l 892 391 l 895 391 l 930 414 m 1306 414 q 1341 379 1341 408 l 1341 315 l 1362 315 l 1369 309 q 1337 297 1369 300 l 1334 300 l 1331 297 l 1324 297 l 1322 300 l 1318 297 l 1309 297 l 1303 303 l 1303 309 q 1324 319 1305 319 l 1322 322 l 1322 379 q 1306 391 1315 391 q 1268 353 1297 391 l 1271 351 l 1271 344 l 1268 341 l 1271 332 l 1268 315 l 1271 313 l 1280 315 q 1293 306 1293 311 l 1293 300 l 1261 297 l 1246 297 l 1230 300 l 1230 313 l 1249 315 l 1252 370 l 1249 370 l 1252 372 l 1252 382 l 1249 385 l 1249 388 l 1246 385 l 1242 385 l 1230 391 q 1249 410 1230 410 l 1261 410 q 1268 388 1268 410 q 1306 414 1286 410 m 1423 414 l 1423 410 l 1426 414 q 1473 372 1473 406 l 1473 363 l 1467 353 l 1451 357 l 1442 353 l 1438 357 l 1407 351 l 1394 353 l 1391 353 l 1391 351 q 1429 315 1391 319 q 1467 341 1450 324 l 1470 325 q 1426 303 1447 303 l 1416 303 q 1375 351 1388 303 l 1375 366 q 1423 414 1387 414 m 1562 414 q 1596 370 1590 414 l 1596 363 l 1593 351 l 1596 347 l 1596 344 l 1593 334 l 1596 315 l 1618 315 l 1618 309 l 1622 306 l 1618 303 l 1596 297 l 1587 300 l 1584 297 l 1580 297 l 1577 300 l 1574 300 l 1562 297 l 1555 306 l 1555 309 q 1577 319 1555 317 l 1574 341 l 1577 344 l 1577 347 l 1574 360 l 1574 370 l 1577 372 q 1565 391 1571 391 l 1558 391 q 1524 353 1534 376 l 1524 351 l 1527 347 l 1524 338 l 1527 334 l 1527 332 l 1524 319 l 1524 315 l 1546 313 l 1546 300 l 1524 297 l 1501 297 q 1480 309 1485 297 q 1505 315 1489 315 l 1501 319 l 1508 353 l 1505 363 l 1508 363 l 1505 372 l 1508 376 l 1508 379 l 1501 388 l 1492 385 l 1482 397 q 1501 410 1486 410 l 1514 410 q 1524 388 1522 410 l 1527 388 q 1562 414 1527 406 m 18 410 l 28 410 l 34 404 l 31 271 l 34 256 l 113 252 l 208 252 l 309 259 l 356 259 l 359 262 l 362 259 l 375 262 l 441 259 l 441 262 l 444 259 l 463 259 l 463 252 l 466 252 l 466 259 l 513 262 l 517 259 l 517 265 q 507 275 507 265 l 511 278 l 523 278 l 532 271 l 539 278 l 545 269 l 545 265 l 539 265 l 539 262 l 555 259 l 557 262 l 564 262 l 576 256 l 618 259 l 798 252 l 848 256 l 937 246 l 981 250 l 1000 246 l 1041 250 l 1066 250 l 1069 246 l 1072 250 l 1088 246 l 1177 246 l 1205 250 l 1227 246 l 1240 246 l 1242 250 l 1246 246 l 1284 252 l 1287 250 l 1303 252 l 1410 250 l 1410 252 l 1413 250 l 1435 250 l 1656 252 l 1666 262 l 1669 259 l 1672 259 l 1685 262 q 1694 252 1694 262 l 1795 252 l 1801 246 l 1799 243 l 1801 240 l 1776 240 l 1773 243 l 1770 240 l 1763 240 l 1761 243 l 1757 240 l 1735 240 l 1704 237 l 1700 240 l 1694 233 l 1678 233 l 1666 237 l 1653 233 l 1650 233 l 1650 237 q 1659 243 1659 237 l 1640 237 l 1622 237 l 1625 240 l 1625 243 l 1555 243 l 1555 240 l 1609 240 l 1609 237 l 1599 233 l 1596 237 l 1470 237 l 1467 233 l 1463 233 l 1461 237 l 1461 233 l 1457 237 l 1454 237 l 1407 233 l 1331 237 l 1328 233 l 1324 237 l 1322 233 l 1322 237 l 1318 233 l 1116 233 l 1114 237 l 1110 237 l 1110 233 l 1082 240 l 1078 237 l 1076 237 l 1063 240 l 1053 233 l 1000 237 l 937 237 l 924 233 l 911 237 l 908 237 l 895 233 l 883 237 l 883 233 l 880 237 l 842 237 l 820 233 l 820 237 l 817 233 l 813 233 l 801 237 l 798 233 l 795 233 l 785 237 l 785 233 l 782 237 l 725 237 l 725 243 l 722 243 l 722 237 l 709 237 l 709 243 l 703 243 l 703 237 l 696 243 l 681 240 l 677 240 l 677 246 l 646 246 l 633 243 l 621 246 l 586 246 l 583 250 l 580 250 l 580 243 l 561 250 l 557 246 l 542 250 l 517 250 l 513 246 l 511 250 l 498 250 l 460 246 l 460 250 l 457 246 l 448 250 l 419 246 l 406 250 l 403 246 l 400 246 l 391 250 l 372 246 l 368 250 l 366 246 l 362 246 l 359 250 l 356 246 l 349 246 l 337 250 l 324 246 l 321 250 l 321 246 l 318 250 q 277 240 277 246 l 264 246 l 252 240 l 239 243 l 236 240 l 233 240 l 220 243 l 217 243 l 217 237 l 214 237 l 210 240 l 208 240 l 204 237 l 166 243 q 151 237 166 237 l 151 233 l 135 237 l 37 237 l 40 240 l 40 243 q -4 269 16 243 l -1 269 l 12 265 l 18 410 m 513 410 q 557 385 540 410 l 557 315 l 567 313 q 576 325 569 325 l 583 325 q 561 300 580 300 l 539 313 q 498 300 539 306 q 466 332 466 307 l 466 338 q 517 357 471 357 q 545 376 541 366 l 526 391 l 501 391 l 494 385 l 498 382 l 498 379 l 488 366 l 482 366 q 469 382 469 373 q 513 410 480 410 m 779 410 l 785 410 q 823 385 823 406 q 836 351 831 385 q 788 297 826 297 l 769 297 q 731 360 731 315 q 779 410 752 410 m 1158 410 l 1189 410 l 1189 407 l 1183 407 l 1183 404 q 1202 391 1202 404 q 1217 351 1211 391 q 1170 297 1208 297 l 1151 297 q 1114 353 1114 315 l 1107 360 l 1107 363 q 1126 388 1120 363 l 1158 410 m 1723 410 l 1744 410 q 1782 385 1765 410 l 1782 370 l 1773 360 l 1763 360 l 1751 372 l 1754 385 l 1738 391 q 1713 363 1713 385 l 1716 360 l 1707 360 l 1707 351 l 1723 325 l 1726 328 l 1732 322 l 1732 319 q 1776 341 1754 319 l 1782 341 l 1786 332 q 1729 300 1770 300 q 1688 357 1688 318 q 1723 410 1688 389 m 1839 410 l 1855 410 q 1877 404 1862 404 l 1896 357 l 1896 353 l 1883 306 l 1881 309 l 1877 309 q 1845 297 1877 300 l 1836 297 q 1792 353 1792 309 q 1839 410 1805 410 m 1927 410 l 1934 410 l 1944 404 l 1953 410 l 1969 410 l 1982 404 l 2009 410 l 2013 410 q 2032 382 2032 399 l 2032 319 q 2047 309 2047 318 l 2041 300 l 2038 303 l 2022 300 l 2016 300 l 2003 303 l 1991 300 l 1988 300 l 1975 303 l 1965 300 l 1956 303 l 1937 300 l 1934 300 l 1931 303 l 1927 303 l 1921 297 l 1918 297 q 1906 313 1912 298 l 1925 325 l 1921 357 l 1925 370 l 1921 385 l 1925 388 l 1925 391 q 1906 401 1906 391 q 1927 410 1917 410 m 366 404 l 366 395 l 372 395 l 372 397 l 366 404 m 1391 370 l 1404 363 l 1410 370 l 1429 370 l 1432 366 l 1435 366 l 1438 370 l 1438 366 l 1461 370 q 1442 397 1453 394 l 1423 397 q 1391 370 1391 393 m 400 391 l 400 385 l 393 385 l 391 388 l 387 388 l 381 379 l 387 379 l 387 372 l 384 372 l 381 376 l 378 376 l 381 360 l 381 353 l 372 353 l 372 360 l 368 360 l 366 344 l 366 328 l 368 328 q 375 351 368 351 l 378 351 l 381 341 l 378 322 q 387 313 387 322 l 397 313 q 416 322 408 322 l 416 325 l 412 328 l 416 332 l 416 360 l 412 363 l 416 366 l 416 370 l 412 372 l 416 376 l 416 379 l 406 391 l 400 391 m 1050 391 l 1050 385 l 1044 385 l 1041 388 l 1038 388 l 1031 379 l 1038 379 l 1038 376 l 1031 370 l 1025 376 l 1025 372 l 1031 366 l 1028 353 l 1019 353 l 1019 360 l 1015 360 l 1013 332 l 1015 328 l 1019 328 q 1025 351 1019 351 l 1028 347 l 1028 344 l 1025 322 l 1044 313 q 1053 322 1053 313 l 1057 322 l 1060 319 l 1063 319 l 1066 332 l 1063 334 l 1063 376 l 1066 379 l 1066 382 l 1053 391 l 1050 391 m 1940 357 l 1944 319 l 1956 313 l 1969 338 l 1963 338 l 1963 344 l 1969 344 l 1969 357 l 1965 370 l 1969 382 l 1959 391 l 1956 391 q 1940 357 1945 391 m 460 391 l 466 385 l 466 382 l 460 382 l 460 391 m 753 344 q 779 315 757 332 l 779 313 q 810 334 810 323 l 817 344 l 813 347 l 813 351 l 817 353 l 817 357 q 798 385 808 381 l 785 385 l 785 379 l 776 379 l 779 382 l 779 388 q 753 344 755 388 m 1135 344 q 1160 315 1139 332 l 1160 313 q 1183 319 1168 319 l 1198 341 l 1196 351 l 1198 353 l 1198 357 q 1179 385 1191 381 l 1167 385 l 1167 379 l 1158 379 l 1160 382 l 1160 388 q 1135 344 1137 388 m 1814 363 l 1814 351 q 1839 315 1814 332 l 1839 313 q 1871 334 1871 323 l 1874 347 l 1874 366 l 1858 385 l 1845 385 l 1845 376 l 1836 379 l 1839 382 l 1839 388 q 1814 363 1825 388 m 1997 388 q 1984 372 1997 379 l 1988 370 l 1988 322 l 1997 313 l 2003 313 q 2016 332 2009 313 l 2007 332 l 2007 334 l 2016 357 l 2009 363 l 2009 370 l 2016 370 l 2016 376 l 2013 376 l 2009 372 l 2007 372 l 2007 388 l 1997 388 m 1107 388 l 1110 388 l 1116 382 l 1107 382 l 1107 388 m 441 363 l 448 363 l 448 353 l 441 353 l 441 363 m 466 363 l 466 353 l 463 353 l 457 360 l 460 363 l 466 363 m 1088 363 l 1095 363 l 1095 353 l 1088 353 l 1088 363 m 517 347 l 517 351 q 482 332 482 342 l 479 328 q 492 313 485 314 l 511 313 q 545 332 527 313 l 545 347 l 539 353 l 517 347 m 1650 357 l 1659 357 q 1681 328 1681 347 q 1659 297 1681 311 l 1656 297 q 1625 315 1638 297 l 1625 334 q 1650 357 1627 344 m 646 351 q 640 334 646 334 l 643 319 l 652 319 l 656 322 l 659 319 l 675 319 l 652 351 l 646 351 m 438 344 l 441 344 l 448 338 l 448 334 l 444 334 l 438 341 l 438 344 m 1088 344 l 1095 344 l 1095 334 l 1088 341 l 1088 344 m 40 338 l 50 338 l 50 328 l 46 328 l 40 334 l 40 338 m 53 325 l 59 319 l 59 315 l 53 322 l 53 325 m 56 313 l 59 313 l 59 309 l 37 303 q 56 313 37 309 m 62 297 l 65 297 l 65 294 l 37 288 l 34 288 l 34 290 l 62 297 m 356 278 l 378 275 l 378 271 l 362 269 l 349 271 l 349 275 l 356 275 l 356 278 m 523 265 l 523 259 l 532 262 l 532 265 l 523 265 m 791 265 l 807 265 l 807 262 l 791 262 l 791 265 m 1388 265 l 1398 262 l 1398 259 l 1385 259 l 1388 262 l 1388 265 m 1805 252 l 1912 252 l 1912 250 l 1843 250 l 1843 240 l 1830 240 l 1830 246 l 1827 246 l 1827 240 l 1805 240 l 1805 252 m 1669 243 l 1669 240 l 1681 237 l 1685 237 l 1685 240 l 1675 243 l 1669 243 m 154 199 q 173 183 167 195 l 173 174 l 160 161 l 154 161 q 138 180 142 167 q 154 199 142 193 m 494 193 l 507 193 q 517 170 515 193 l 520 170 l 517 161 l 520 151 l 517 132 l 520 132 l 517 123 l 520 107 l 523 107 q 549 136 549 128 l 539 136 l 539 142 l 549 151 l 595 151 l 602 145 l 602 142 q 574 132 602 132 l 551 111 q 583 60 572 66 l 599 63 l 608 60 l 608 50 q 586 41 608 43 l 586 44 l 583 41 l 580 41 l 545 44 l 492 41 l 479 50 q 501 60 479 60 l 501 104 l 498 107 l 501 111 l 501 120 l 498 132 l 501 145 l 501 149 q 475 177 501 177 l 475 183 l 473 186 l 475 189 l 494 193 m 738 193 l 741 189 l 744 193 l 757 193 l 776 186 l 776 180 l 769 180 l 769 136 q 776 149 776 136 l 779 145 l 782 145 l 801 151 l 817 151 l 829 142 l 832 145 l 836 145 l 836 142 l 832 139 l 839 104 l 836 92 l 839 63 l 842 63 l 842 73 l 848 73 q 864 57 848 64 l 867 60 l 870 57 l 870 50 l 832 41 l 829 44 l 823 44 l 810 41 l 801 47 l 741 41 l 731 44 l 731 60 l 750 63 l 750 168 q 731 174 750 174 l 728 186 l 738 193 m 1151 193 l 1158 193 l 1186 186 q 1177 180 1186 180 l 1177 136 l 1179 136 l 1179 149 l 1196 145 q 1215 155 1196 151 q 1233 142 1233 149 l 1236 145 l 1242 145 l 1242 142 l 1240 139 l 1246 104 l 1242 82 l 1246 69 l 1242 66 l 1246 63 l 1249 63 l 1249 73 l 1255 73 q 1271 57 1255 64 l 1274 60 l 1278 57 l 1278 54 q 1240 41 1263 44 l 1227 44 l 1217 41 l 1208 47 l 1148 41 l 1135 44 l 1135 54 q 1158 63 1137 63 l 1158 158 q 1142 174 1158 174 l 1135 180 l 1135 189 l 1151 193 m 116 158 l 128 155 l 132 158 q 170 145 170 154 l 170 44 q 128 0 170 0 q 94 25 100 12 l 94 50 l 116 57 l 125 41 l 125 35 l 119 25 l 122 28 l 135 25 l 151 28 l 147 32 l 151 47 l 151 130 l 138 139 l 135 136 l 135 132 l 119 136 l 106 136 l 106 149 l 116 158 m 192 155 l 192 151 l 195 155 l 201 155 q 229 130 229 155 l 229 73 l 239 60 q 277 95 250 61 l 274 98 l 274 107 l 277 111 l 271 130 q 248 142 254 130 q 271 155 254 155 q 299 139 291 155 l 299 126 l 296 114 l 299 111 l 299 107 l 296 104 l 296 101 l 299 92 l 296 88 l 296 85 l 299 73 l 296 69 q 321 57 321 62 l 321 50 l 315 41 l 311 44 l 302 44 l 290 41 q 280 50 280 41 l 277 54 l 274 54 q 236 41 252 41 l 229 41 q 204 92 212 41 l 208 117 q 185 130 205 130 l 179 149 l 179 151 l 182 149 l 185 149 l 192 155 m 406 155 q 441 111 435 155 l 441 60 l 460 60 l 466 54 l 466 47 l 454 41 l 412 41 l 410 38 l 406 38 l 400 47 l 400 50 q 422 60 402 60 l 419 82 l 422 85 l 422 88 l 419 101 l 422 104 l 419 114 l 422 123 l 410 132 l 400 132 q 368 95 378 116 l 368 57 l 391 54 l 391 41 l 359 41 l 340 38 l 328 47 l 328 54 l 349 57 l 347 60 l 353 98 l 349 107 l 353 107 l 349 111 l 349 114 l 353 117 l 347 132 l 343 130 l 337 130 l 328 139 l 340 151 l 359 151 q 368 132 368 149 q 406 155 387 155 m 1069 155 q 1104 130 1092 155 l 1104 60 l 1120 60 l 1133 47 l 1120 41 l 1085 41 l 1069 38 l 1066 54 l 1066 57 l 1088 60 l 1085 76 l 1085 123 l 1076 132 q 1031 95 1054 132 l 1034 92 l 1034 85 l 1031 82 l 1034 79 l 1034 76 l 1031 60 l 1057 54 l 1057 41 l 1025 41 l 1006 38 l 994 41 l 994 50 q 1013 57 994 57 l 1013 60 l 1015 101 l 1013 101 l 1019 117 l 1013 132 l 1009 130 l 1003 130 l 994 139 l 994 142 l 1003 151 l 1025 151 q 1031 130 1031 151 q 1069 155 1051 155 m 1324 155 l 1324 151 l 1328 155 q 1375 114 1375 148 l 1375 104 l 1366 95 l 1360 101 l 1343 95 l 1334 98 l 1331 95 l 1331 98 l 1328 95 l 1322 95 l 1318 98 l 1316 95 l 1297 95 l 1297 79 q 1328 57 1312 57 q 1369 82 1350 63 l 1372 79 l 1372 69 q 1322 44 1356 44 q 1274 98 1291 44 l 1268 98 q 1280 126 1280 110 q 1324 155 1301 155 m 1470 155 q 1505 126 1505 153 q 1495 111 1502 111 l 1482 111 l 1473 120 l 1473 123 l 1480 132 l 1480 136 l 1476 136 q 1432 82 1442 136 l 1432 66 l 1438 60 l 1467 60 q 1486 50 1486 58 l 1486 47 l 1470 44 l 1457 44 l 1442 47 l 1423 44 l 1385 44 l 1381 57 q 1416 76 1416 57 l 1413 79 l 1416 95 l 1416 107 l 1413 120 l 1416 130 l 1385 139 l 1385 145 l 1391 151 l 1419 151 l 1435 149 l 1432 132 q 1470 155 1451 149 m 662 151 l 677 151 q 706 130 705 142 q 719 92 719 117 l 706 54 l 709 50 l 677 41 l 649 41 q 618 88 618 58 l 618 98 q 662 151 628 151 m 924 151 q 965 123 965 138 l 962 120 l 962 111 l 965 111 l 962 88 l 962 57 l 968 57 q 975 66 975 57 l 977 69 l 984 69 l 987 57 q 962 41 972 41 l 946 54 l 899 41 q 867 79 867 54 q 908 101 884 101 l 908 98 q 946 114 946 107 l 946 120 l 927 136 l 924 132 l 921 132 l 918 136 l 914 136 q 902 117 902 136 l 889 107 q 873 123 873 113 q 924 151 882 151 m 1549 151 l 1568 151 q 1618 98 1604 151 q 1599 50 1607 50 l 1574 41 l 1552 41 q 1514 92 1522 41 l 1514 101 q 1549 151 1514 127 m 1729 151 l 1744 151 q 1782 120 1782 145 l 1782 111 l 1773 101 l 1767 101 l 1751 114 l 1754 117 l 1754 123 q 1735 132 1751 132 q 1713 104 1713 125 l 1716 101 l 1707 101 l 1707 95 l 1719 69 q 1732 60 1732 68 q 1776 82 1751 60 l 1782 82 l 1786 73 q 1726 41 1786 51 q 1688 101 1688 64 q 1729 151 1700 151 m 1839 151 l 1855 151 q 1877 145 1862 145 l 1896 95 l 1883 50 l 1881 54 l 1877 54 q 1855 41 1877 41 l 1827 41 q 1792 101 1792 58 q 1839 151 1809 151 m 1925 151 l 1934 151 l 1944 145 l 1950 151 l 1969 151 l 1978 145 l 2007 151 l 2016 151 l 2032 132 l 2032 60 q 2047 54 2047 60 l 2047 50 l 2041 41 l 2032 44 l 2028 41 l 2026 41 l 2022 44 l 2019 44 l 2016 41 l 2013 41 l 2000 44 l 1984 41 l 1975 44 l 1963 41 l 1956 47 l 1946 41 l 1940 41 l 1927 44 l 1915 41 l 1902 57 l 1925 63 l 1921 98 l 1925 111 l 1921 126 l 1925 130 l 1925 132 q 1906 142 1906 132 q 1925 151 1909 151 m 1297 123 l 1297 107 l 1328 111 l 1362 111 q 1343 139 1362 127 l 1322 139 q 1297 123 1305 139 m 801 132 l 801 126 l 798 126 l 795 130 l 791 130 l 782 114 l 785 111 l 785 107 l 782 95 l 776 95 l 776 104 l 769 98 l 769 69 l 772 69 q 779 92 772 92 l 782 92 l 782 66 l 791 57 l 791 54 q 820 79 816 54 l 817 92 l 820 92 l 817 95 l 817 101 l 820 104 l 820 107 l 817 111 l 820 111 l 817 114 l 817 117 l 820 120 l 810 132 l 801 132 m 1205 126 l 1202 130 l 1198 130 l 1192 120 l 1198 120 l 1192 114 l 1189 117 l 1189 114 l 1192 111 l 1192 107 l 1189 95 l 1183 95 q 1177 104 1183 104 l 1177 73 l 1179 73 q 1186 92 1179 92 l 1189 92 l 1189 85 l 1192 85 l 1189 82 l 1189 66 l 1198 57 l 1198 54 l 1205 54 q 1224 73 1224 63 l 1227 73 l 1224 88 l 1224 117 l 1227 120 l 1217 132 l 1215 132 l 1205 126 m 1940 95 l 1944 66 l 1940 63 l 1956 57 l 1969 79 l 1963 79 l 1963 85 l 1969 85 l 1969 101 l 1965 114 l 1969 126 l 1959 132 l 1956 132 q 1940 95 1944 132 m 2000 132 q 1988 107 1988 119 l 1988 92 l 1991 88 l 1988 85 l 1988 63 q 2003 54 1988 56 l 2016 73 l 2007 73 l 2007 76 l 2016 98 l 2009 104 l 2009 114 l 2016 114 l 2016 117 q 2007 126 2007 117 l 2000 132 m 637 92 q 662 57 637 77 q 700 88 689 57 l 696 88 l 700 92 l 700 95 q 677 130 691 130 q 668 120 668 130 l 659 130 q 637 92 642 130 m 1274 132 l 1278 130 l 1278 126 l 1268 126 l 1274 132 m 1533 92 q 1558 57 1537 75 q 1596 92 1596 62 l 1593 92 l 1596 95 l 1596 98 q 1574 130 1596 118 q 1565 120 1565 130 l 1555 130 q 1533 92 1541 130 m 1814 98 l 1814 92 q 1839 57 1814 75 q 1874 88 1874 63 l 1874 101 q 1855 130 1874 117 q 1845 120 1845 130 l 1843 120 l 1836 126 l 1839 130 l 1836 130 q 1814 98 1814 120 m 848 107 l 848 95 l 842 101 l 848 107 m 1255 107 l 1255 95 l 1249 101 l 1255 107 m 861 104 l 870 104 l 870 98 l 867 98 l 861 104 m 1647 101 q 1681 69 1681 95 q 1662 41 1681 54 l 1653 41 q 1625 60 1636 41 l 1625 69 q 1647 101 1625 83 m 921 88 l 921 92 l 918 88 l 892 88 q 883 69 892 77 q 905 54 887 54 l 921 54 l 949 69 l 946 85 l 946 95 l 943 95 l 921 88 m 526 82 l 526 60 l 539 60 l 542 63 l 545 60 l 557 60 l 557 63 l 536 92 l 526 82 m 848 88 l 848 79 l 842 85 l 845 88 l 848 88 m 1255 88 l 1255 79 l 1249 79 l 1249 82 l 1255 88 z "},"":{"ha":0,"x_min":0,"x_max":0,"o":""},"":{"ha":4,"x_min":0,"x_max":0,"o":""},"":{"ha":2060,"x_min":-4,"x_max":2047,"o":"m 163 1023 l 179 1023 q 214 981 214 1004 q 151 916 214 940 l 144 906 l 144 897 l 189 897 l 201 899 l 214 893 q 182 874 214 874 l 160 878 l 128 874 q 116 887 116 878 q 189 960 116 925 l 192 972 q 163 998 192 998 q 128 969 155 998 l 125 969 l 119 975 l 119 988 q 163 1023 140 1023 m 261 1023 l 277 1023 q 330 944 330 1010 q 283 874 317 874 l 271 871 q 220 954 220 887 l 220 960 q 258 1019 234 1019 l 261 1023 m 384 1023 l 403 1023 q 444 954 444 1004 l 448 950 q 412 881 436 881 l 387 871 q 337 950 337 886 l 337 963 q 384 1023 351 1023 m 501 1023 q 551 969 532 1023 q 488 871 543 871 l 473 868 l 463 871 q 507 890 463 881 q 526 928 523 901 l 526 937 l 494 928 q 454 969 454 939 l 454 981 q 501 1023 454 1017 m 40 1013 l 65 1013 l 81 1010 l 81 1007 l 75 1000 l 75 1004 l 72 1000 l 59 1000 l 56 1004 l 53 1000 l 40 1000 l 40 1013 m 236 950 l 236 941 q 267 887 247 887 l 271 890 l 274 890 l 283 887 q 309 931 309 911 l 309 972 q 280 1004 296 999 l 274 1004 l 274 1007 q 236 950 236 995 m 353 944 q 384 887 353 907 l 387 890 l 397 887 q 429 935 412 888 l 429 956 q 391 1007 429 987 q 353 944 353 996 m 485 991 l 482 991 l 479 994 l 475 994 l 473 972 q 498 944 477 944 q 526 975 522 944 l 526 985 l 507 1004 l 492 1004 q 485 991 485 1004 m 34 994 l 46 994 l 46 988 l 37 975 l 40 963 l 37 960 l 34 960 l 34 994 m 1095 994 l 1095 991 l 1097 994 l 1129 994 q 1196 966 1178 994 l 1196 954 q 1183 947 1196 947 l 1183 944 q 1202 928 1192 928 l 1196 918 l 1205 918 l 1211 935 l 1224 928 q 1215 922 1224 922 l 1211 918 l 1211 916 q 1217 899 1217 916 l 1249 884 q 1240 855 1249 861 l 1242 824 l 1242 817 q 1217 742 1242 800 l 1211 742 q 1198 761 1198 748 l 1192 761 q 1170 701 1175 731 l 1173 698 l 1177 698 l 1177 701 l 1208 688 l 1215 707 q 1246 635 1228 699 l 1249 635 q 1271 704 1249 667 l 1268 704 l 1271 707 l 1271 723 l 1265 767 l 1268 770 l 1271 770 q 1252 830 1252 812 q 1265 897 1255 872 l 1287 890 l 1274 909 l 1278 912 l 1278 916 q 1261 931 1269 918 q 1316 960 1301 931 q 1362 969 1327 966 l 1480 960 l 1480 950 l 1482 954 l 1486 954 l 1498 941 l 1495 937 l 1495 935 l 1498 925 l 1511 925 q 1524 944 1524 931 l 1543 944 l 1546 947 l 1549 947 q 1580 887 1558 937 l 1584 887 l 1599 897 l 1603 897 q 1625 884 1613 884 l 1634 890 q 1640 878 1640 890 l 1656 878 l 1669 887 l 1681 878 l 1688 878 q 1697 890 1697 878 l 1707 890 l 1710 878 l 1723 878 q 1735 890 1723 890 l 1748 874 l 1751 874 q 1757 884 1757 874 l 1761 887 l 1776 887 q 1839 868 1776 872 l 1887 843 l 1909 817 l 1921 720 q 1896 666 1921 684 q 1881 685 1881 672 l 1877 685 q 1864 644 1868 685 q 1849 590 1858 644 l 1849 536 q 1773 502 1849 516 l 1757 492 l 1738 505 l 1713 496 l 1700 508 l 1685 496 l 1678 496 q 1672 508 1678 508 l 1662 508 q 1656 498 1656 508 l 1647 496 q 1631 511 1639 511 l 1609 498 l 1593 517 l 1577 505 q 1568 524 1568 505 l 1552 530 l 1552 527 l 1555 524 q 1505 454 1527 455 l 1473 445 l 1457 448 l 1391 448 l 1379 445 l 1366 448 l 1331 448 l 1293 479 l 1293 483 l 1290 483 l 1287 479 l 1284 483 l 1280 483 q 1205 442 1205 483 q 1192 426 1192 435 l 1167 426 l 1142 420 l 1116 420 q 1053 454 1053 429 q 994 540 994 512 l 990 536 l 987 536 q 956 555 970 555 l 918 555 l 902 559 l 905 540 l 902 527 l 908 527 l 902 505 l 895 505 q 883 524 895 524 l 883 527 q 899 534 899 527 l 899 540 l 895 536 l 892 536 l 883 543 l 883 534 l 880 534 l 880 543 l 883 562 l 829 562 q 807 571 819 562 l 791 571 l 782 559 l 779 555 l 772 555 q 747 571 755 571 l 725 562 q 671 581 708 562 l 668 578 l 665 578 l 621 581 l 545 568 q 520 581 532 581 l 501 568 l 473 568 q 416 631 431 602 l 378 672 l 356 672 l 353 669 l 349 672 l 328 672 l 302 666 l 293 666 q 236 710 236 676 l 236 713 q 290 761 236 753 l 321 761 l 330 754 l 340 761 l 343 758 l 347 761 l 384 761 q 397 789 391 761 q 469 859 462 859 l 520 859 q 545 871 533 871 l 576 862 l 612 865 q 627 859 627 865 l 652 862 l 681 859 l 713 868 l 750 859 l 776 868 l 779 868 q 807 859 795 868 l 810 859 l 836 865 l 861 859 l 895 862 l 908 859 l 911 862 l 914 862 l 918 859 l 921 859 l 949 865 l 956 859 q 990 884 990 859 q 1028 925 1011 925 l 1034 944 q 1041 931 1041 944 q 1060 975 1048 931 q 1095 994 1078 994 m 892 963 l 895 963 q 905 928 895 945 l 902 928 l 889 935 l 892 963 m 1205 944 l 1211 944 l 1211 935 l 1205 941 l 1205 944 m 1047 922 l 1050 922 l 1057 928 l 1057 931 l 1047 922 m 1249 935 l 1255 935 l 1255 928 l 1240 925 l 1249 935 m 34 931 l 37 931 l 37 925 l 40 925 l 40 931 l 43 931 l 43 893 l 40 890 l 40 887 l 43 887 l 40 884 l 40 843 l 43 840 l 40 836 l 40 663 l 37 644 l 40 631 l 37 628 l 37 625 l 40 622 l 40 618 l 37 606 l 40 597 l 37 593 l 46 590 l 46 587 l 37 587 l 34 426 l 18 426 l 18 470 l 21 473 l 18 483 l 28 723 l 24 723 l 28 732 l 34 928 l 34 931 m 914 925 l 918 925 l 924 918 l 911 916 l 914 925 m 1362 916 l 1369 903 l 1375 909 l 1375 922 l 1369 922 l 1362 916 m 918 912 l 921 909 l 921 906 q 914 893 914 906 l 911 897 l 908 897 l 911 899 l 911 903 l 908 906 l 908 909 l 918 912 m 1356 884 l 1356 878 l 1366 874 q 1400 897 1385 880 l 1391 899 q 1362 884 1371 895 l 1356 884 m 908 890 l 924 890 l 924 881 l 908 884 l 908 890 m 1356 843 l 1366 843 q 1394 868 1366 849 l 1391 871 q 1356 843 1371 867 m 677 830 l 675 830 l 627 840 l 621 840 q 602 811 614 839 l 599 811 q 576 824 588 811 l 564 827 l 564 811 l 551 811 l 549 824 l 551 840 l 539 843 q 511 830 525 842 q 479 846 479 830 l 473 846 q 454 821 473 840 q 435 795 454 812 l 431 773 l 435 726 l 429 720 q 460 622 454 624 l 460 616 l 475 616 q 488 641 481 616 l 498 641 l 523 622 l 555 625 l 555 628 q 539 647 539 640 q 561 672 539 654 l 580 666 l 580 672 l 586 672 l 595 663 l 595 660 l 589 650 l 589 647 q 605 631 605 647 l 605 628 l 614 635 l 646 631 l 662 641 l 671 641 q 690 618 690 629 l 709 618 q 719 628 709 628 l 722 631 l 722 635 l 719 637 l 722 650 l 728 650 q 769 625 753 625 q 813 644 813 635 q 820 666 814 666 l 817 688 l 817 723 l 820 726 l 820 729 l 817 729 l 826 751 l 829 751 q 836 735 836 751 l 839 735 l 839 761 q 829 789 839 777 l 836 808 l 829 817 l 836 824 l 836 827 q 823 833 823 827 l 798 827 l 779 843 l 738 833 q 722 849 722 833 l 722 852 l 715 852 q 677 830 689 842 m 56 852 l 62 852 l 65 849 l 68 852 l 75 852 l 75 846 l 62 846 l 62 840 q 75 830 62 830 l 72 827 l 72 821 l 75 817 l 75 814 l 62 814 l 62 821 l 68 821 l 68 824 l 56 824 l 59 827 l 56 830 l 56 852 m 1050 843 l 1044 836 l 1044 830 l 1053 840 l 1053 843 l 1050 843 m 1066 843 l 1078 830 q 1095 840 1095 834 l 1091 843 l 1066 843 m 851 783 l 854 754 l 848 707 q 864 631 858 685 q 873 618 873 631 l 877 616 l 902 616 q 911 637 907 637 l 908 641 l 908 672 l 914 672 q 927 650 920 672 l 946 628 l 949 628 l 959 635 l 968 635 l 971 631 l 975 631 l 975 660 l 981 694 l 981 758 l 984 761 l 977 780 l 981 783 l 981 786 q 952 814 981 814 l 952 817 q 930 780 930 811 l 933 777 l 930 773 l 914 773 q 902 840 914 806 q 867 821 867 840 q 851 783 861 814 m 1353 814 l 1360 792 l 1362 792 q 1385 802 1374 802 l 1388 802 l 1388 799 l 1381 799 l 1388 792 l 1394 799 l 1398 799 l 1400 767 l 1400 758 l 1398 761 l 1394 761 l 1398 764 l 1398 777 l 1372 792 l 1356 783 l 1341 799 l 1324 786 l 1306 795 l 1299 795 l 1284 767 l 1287 758 l 1284 758 l 1290 732 l 1290 729 l 1284 729 l 1293 710 l 1293 707 l 1284 713 l 1284 710 l 1290 691 l 1287 691 l 1299 672 l 1303 675 l 1306 675 q 1356 660 1347 669 l 1372 669 q 1385 660 1385 667 l 1404 660 l 1413 672 l 1432 675 l 1432 672 q 1442 666 1432 666 l 1463 672 l 1461 675 l 1461 682 l 1467 694 l 1470 745 q 1451 799 1461 799 l 1438 795 q 1410 811 1421 795 l 1407 814 q 1391 840 1400 814 l 1385 840 q 1366 821 1368 840 l 1353 814 m 586 836 l 593 830 l 595 833 l 595 836 l 586 836 m 1060 786 l 1047 786 l 1044 789 l 1041 789 l 1031 720 l 1034 707 l 1022 688 l 1022 682 q 1038 672 1031 682 l 1031 656 l 1041 650 l 1038 647 l 1038 635 l 1050 622 q 1069 647 1069 640 l 1072 647 q 1088 637 1072 637 q 1101 631 1088 631 l 1110 622 l 1126 622 q 1142 637 1142 627 l 1148 637 l 1148 653 l 1139 679 q 1154 720 1144 679 q 1139 764 1154 742 l 1139 783 q 1116 817 1139 806 l 1091 817 q 1066 799 1066 817 q 1060 786 1066 786 m 65 811 l 65 808 l 59 802 l 56 802 l 65 811 m 580 795 l 593 795 l 599 789 l 599 773 l 583 754 l 567 764 q 551 754 567 757 l 539 773 l 557 792 l 567 792 l 570 789 l 574 789 l 580 795 m 1852 792 l 1845 780 l 1849 764 l 1849 742 q 1855 701 1849 715 l 1852 698 l 1862 691 l 1868 691 l 1874 717 l 1874 726 l 1871 789 l 1852 792 m 574 780 l 576 767 l 580 767 l 589 773 l 586 783 l 580 783 l 576 780 l 574 780 m 551 773 l 557 767 l 564 767 l 564 780 l 557 780 l 551 773 m 1514 780 q 1498 761 1514 763 l 1498 713 l 1508 704 l 1511 707 l 1514 694 l 1520 694 l 1520 698 l 1517 720 l 1520 720 l 1517 723 l 1524 758 q 1514 780 1519 780 m 1571 735 l 1571 742 l 1574 745 l 1574 748 l 1571 764 l 1555 761 l 1546 767 l 1530 720 l 1530 717 l 1533 694 l 1536 694 l 1549 704 l 1552 704 l 1558 688 l 1562 688 q 1571 701 1571 688 l 1568 710 l 1571 713 l 1577 713 q 1603 688 1577 705 l 1606 691 l 1606 723 l 1609 723 q 1631 669 1622 723 l 1634 669 q 1647 704 1640 704 l 1656 704 l 1662 688 l 1688 723 l 1688 729 q 1675 751 1688 740 l 1672 767 l 1666 767 l 1659 761 l 1662 758 l 1666 758 l 1662 745 l 1656 745 l 1653 754 l 1656 758 l 1656 764 q 1650 748 1650 764 l 1644 748 l 1640 767 l 1637 767 q 1609 742 1624 762 q 1603 773 1603 750 q 1596 758 1596 773 q 1584 745 1584 758 l 1571 735 m 59 773 l 65 773 l 75 770 l 75 767 l 68 767 l 59 770 l 59 773 m 1700 761 l 1697 748 l 1700 748 l 1697 745 l 1697 742 l 1700 729 l 1694 701 q 1704 688 1704 701 l 1710 688 l 1716 704 l 1716 739 q 1726 745 1716 745 l 1726 748 l 1710 761 l 1700 761 m 1763 751 l 1763 742 q 1757 720 1763 720 l 1761 710 l 1763 710 l 1763 717 l 1770 717 l 1770 707 l 1776 707 l 1776 710 l 1770 751 l 1763 751 m 1719 698 l 1723 694 l 1748 704 l 1748 735 l 1751 739 l 1748 748 l 1744 748 q 1729 707 1740 748 l 1719 698 m 1811 739 l 1808 735 l 1808 710 l 1799 710 l 1795 726 l 1789 726 l 1786 704 l 1792 704 l 1792 701 l 1795 704 l 1801 704 q 1808 694 1808 704 l 1814 694 q 1820 704 1814 704 q 1811 739 1818 739 m 248 735 l 248 726 l 252 723 l 255 723 l 252 735 l 248 735 m 375 723 l 375 717 l 387 713 l 387 723 l 381 729 l 375 723 m 583 732 l 586 732 q 593 723 593 732 l 583 707 l 583 701 q 595 694 595 701 l 595 691 q 576 682 595 686 q 542 698 542 688 l 542 701 q 555 729 542 722 l 570 726 l 574 726 l 583 732 m 1650 729 l 1656 729 l 1662 723 l 1662 713 l 1659 713 l 1650 723 l 1650 729 m 557 713 l 557 701 l 561 701 l 561 713 l 557 713 m 68 710 l 72 710 l 72 691 l 68 691 l 68 710 m 1341 694 l 1347 694 l 1356 685 l 1353 682 l 1341 682 l 1341 694 m 921 691 l 921 688 l 911 679 l 911 682 l 921 691 m 1381 691 l 1388 691 l 1388 685 l 1375 682 l 1375 685 l 1381 691 m 1767 679 l 1776 666 l 1782 675 l 1782 682 l 1776 688 l 1767 679 m 59 682 l 72 682 l 72 679 l 59 675 l 59 682 m 53 669 q 59 653 59 669 l 72 653 l 72 647 l 65 641 q 59 650 65 650 l 56 650 l 59 647 l 56 616 l 56 600 l 50 593 l 43 593 l 43 600 l 53 600 l 53 628 l 56 641 l 53 653 l 56 656 l 56 660 l 53 669 m 1078 590 l 1078 587 l 1085 587 l 1116 597 l 1114 606 l 1107 606 q 1078 590 1091 606 m 53 593 l 56 590 l 59 590 l 56 587 l 56 584 l 59 574 l 56 565 l 59 565 l 72 553 l 65 553 q 59 562 59 553 l 56 562 l 56 555 l 53 555 l 53 593 m 1095 581 l 1095 574 l 1107 574 l 1114 581 l 1114 584 l 1095 581 m 62 578 l 72 574 l 65 568 l 62 571 l 62 578 m 50 555 l 53 555 l 53 543 l 50 540 l 53 536 l 46 536 l 46 540 l 50 555 m 59 543 l 65 543 l 72 536 l 65 536 l 59 543 m 56 530 l 59 530 l 62 508 l 56 508 l 56 530 m 62 496 l 68 496 l 68 492 l 59 492 l 59 489 q 68 483 68 489 l 65 479 l 62 479 l 59 483 l 59 479 l 62 477 l 56 477 l 53 492 l 62 496 m 886 489 l 889 489 l 889 483 l 892 483 l 892 489 l 899 489 l 899 486 l 892 477 l 895 473 l 895 464 l 883 464 l 889 470 l 886 473 l 886 489 m 151 454 q 173 442 168 454 l 173 439 q 154 416 173 422 l 138 439 q 151 454 144 453 m 328 448 l 343 448 l 375 445 l 375 442 q 366 435 375 435 l 368 433 l 366 416 l 366 414 q 381 404 366 406 l 400 410 l 403 410 q 425 401 414 410 l 429 404 l 431 404 l 431 401 l 429 397 l 429 395 q 435 322 435 395 l 438 322 l 438 332 l 441 332 q 457 313 457 320 l 460 315 l 466 315 l 466 309 q 457 303 457 309 l 454 303 l 425 300 l 412 303 l 403 300 l 393 306 l 334 300 l 324 303 l 324 313 q 347 322 324 320 l 347 338 l 349 357 l 347 372 l 349 372 l 347 376 l 347 379 l 349 397 q 340 433 347 433 l 330 429 l 324 439 l 328 448 m 624 448 q 633 423 633 446 l 633 401 l 631 397 l 633 395 l 633 391 l 631 388 l 637 363 l 643 363 l 665 395 l 662 395 l 659 391 l 656 395 l 656 407 l 671 410 l 703 410 l 719 407 l 719 395 q 668 370 694 395 q 700 319 689 321 l 703 319 l 719 322 l 725 315 l 719 300 l 715 303 l 713 300 l 706 300 l 703 303 l 694 300 l 662 303 l 608 300 l 605 300 l 595 309 q 618 319 595 319 l 614 379 l 618 388 l 614 388 l 618 391 l 618 395 q 605 433 618 433 l 602 433 l 599 429 l 595 429 l 589 445 l 593 448 l 624 448 m 981 448 l 990 448 l 1022 445 l 1022 442 l 1013 420 l 1015 401 l 1013 397 l 1015 395 l 1019 395 l 1022 407 l 1025 404 l 1028 404 l 1047 410 l 1060 410 l 1072 401 l 1082 404 l 1082 401 l 1078 391 l 1082 391 l 1078 388 l 1085 366 l 1082 341 l 1085 332 l 1082 328 l 1082 322 l 1085 322 q 1091 332 1085 332 l 1095 332 q 1104 322 1095 322 l 1104 315 l 1107 315 l 1110 319 l 1114 319 l 1116 315 l 1116 309 l 1076 300 l 1063 303 l 1060 300 l 1057 300 l 1041 306 l 984 300 l 975 303 l 975 313 q 996 322 975 320 l 994 325 l 994 332 l 996 334 l 994 338 l 996 360 l 996 363 l 994 366 l 996 370 l 996 372 l 994 382 l 996 401 l 994 414 l 996 426 l 990 433 l 987 429 l 981 429 l 975 435 l 975 442 l 981 448 m 122 416 l 125 414 l 125 410 l 141 414 l 144 414 l 147 410 l 157 414 l 170 404 l 170 303 q 160 271 170 288 l 163 269 l 135 259 q 94 290 94 264 l 94 309 l 116 313 l 119 313 l 125 290 l 119 284 l 132 281 l 151 288 l 147 290 l 151 306 l 151 391 l 141 395 l 132 391 l 113 395 l 106 395 l 106 407 q 122 416 106 414 m 192 414 l 192 410 l 195 414 l 198 414 q 229 388 229 414 l 229 332 l 242 319 q 271 347 254 322 l 274 351 l 277 351 l 274 353 l 274 357 l 277 370 q 252 395 277 388 l 248 397 l 248 401 q 267 414 255 414 q 299 388 299 414 l 299 382 l 296 370 l 299 360 l 296 360 l 299 351 l 296 347 l 296 344 l 299 334 l 296 325 l 299 322 l 302 322 l 302 325 q 321 313 321 319 l 321 309 l 315 300 l 305 303 l 283 300 l 274 313 l 233 297 q 204 351 212 297 l 208 379 l 182 391 l 179 407 l 192 414 m 930 414 q 968 382 968 409 q 949 366 962 366 q 937 379 940 368 l 940 395 l 937 395 q 895 347 895 378 l 895 319 l 927 319 q 946 309 946 317 l 940 303 l 845 303 l 845 313 q 877 322 845 319 l 880 332 l 877 334 l 880 366 l 877 382 l 880 382 l 870 395 l 867 395 l 851 391 l 848 395 l 848 404 l 854 410 l 880 410 l 895 407 l 895 397 l 892 395 l 892 391 l 895 391 l 930 414 m 1306 414 q 1341 379 1341 408 l 1341 315 l 1362 315 l 1369 309 q 1337 297 1369 300 l 1334 300 l 1331 297 l 1324 297 l 1322 300 l 1318 297 l 1309 297 l 1303 303 l 1303 309 q 1324 319 1305 319 l 1322 322 l 1322 379 q 1306 391 1315 391 q 1268 353 1297 391 l 1271 351 l 1271 344 l 1268 341 l 1271 332 l 1268 315 l 1271 313 l 1280 315 q 1293 306 1293 311 l 1293 300 l 1261 297 l 1246 297 l 1230 300 l 1230 313 l 1249 315 l 1252 370 l 1249 370 l 1252 372 l 1252 382 l 1249 385 l 1249 388 l 1246 385 l 1242 385 l 1230 391 q 1249 410 1230 410 l 1261 410 q 1268 388 1268 410 q 1306 414 1286 410 m 1423 414 l 1423 410 l 1426 414 q 1473 372 1473 406 l 1473 363 l 1467 353 l 1451 357 l 1442 353 l 1438 357 l 1407 351 l 1394 353 l 1391 353 l 1391 351 q 1429 315 1391 319 q 1467 341 1450 324 l 1470 325 q 1426 303 1447 303 l 1416 303 q 1375 351 1388 303 l 1375 366 q 1423 414 1387 414 m 1562 414 q 1596 370 1590 414 l 1596 363 l 1593 351 l 1596 347 l 1596 344 l 1593 334 l 1596 315 l 1618 315 l 1618 309 l 1622 306 l 1618 303 l 1596 297 l 1587 300 l 1584 297 l 1580 297 l 1577 300 l 1574 300 l 1562 297 l 1555 306 l 1555 309 q 1577 319 1555 317 l 1574 341 l 1577 344 l 1577 347 l 1574 360 l 1574 370 l 1577 372 q 1565 391 1571 391 l 1558 391 q 1524 353 1534 376 l 1524 351 l 1527 347 l 1524 338 l 1527 334 l 1527 332 l 1524 319 l 1524 315 l 1546 313 l 1546 300 l 1524 297 l 1501 297 q 1480 309 1485 297 q 1505 315 1489 315 l 1501 319 l 1508 353 l 1505 363 l 1508 363 l 1505 372 l 1508 376 l 1508 379 l 1501 388 l 1492 385 l 1482 397 q 1501 410 1486 410 l 1514 410 q 1524 388 1522 410 l 1527 388 q 1562 414 1527 406 m 18 410 l 28 410 l 34 404 l 31 271 l 34 256 l 113 252 l 208 252 l 309 259 l 356 259 l 359 262 l 362 259 l 375 262 l 441 259 l 441 262 l 444 259 l 463 259 l 463 252 l 466 252 l 466 259 l 513 262 l 517 259 l 517 265 q 507 275 507 265 l 511 278 l 523 278 l 532 271 l 539 278 l 545 269 l 545 265 l 539 265 l 539 262 l 555 259 l 557 262 l 564 262 l 576 256 l 618 259 l 798 252 l 848 256 l 937 246 l 981 250 l 1000 246 l 1041 250 l 1066 250 l 1069 246 l 1072 250 l 1088 246 l 1177 246 l 1205 250 l 1227 246 l 1240 246 l 1242 250 l 1246 246 l 1284 252 l 1287 250 l 1303 252 l 1410 250 l 1410 252 l 1413 250 l 1435 250 l 1656 252 l 1666 262 l 1669 259 l 1672 259 l 1685 262 q 1694 252 1694 262 l 1795 252 l 1801 246 l 1799 243 l 1801 240 l 1776 240 l 1773 243 l 1770 240 l 1763 240 l 1761 243 l 1757 240 l 1735 240 l 1704 237 l 1700 240 l 1694 233 l 1678 233 l 1666 237 l 1653 233 l 1650 233 l 1650 237 q 1659 243 1659 237 l 1640 237 l 1622 237 l 1625 240 l 1625 243 l 1555 243 l 1555 240 l 1609 240 l 1609 237 l 1599 233 l 1596 237 l 1470 237 l 1467 233 l 1463 233 l 1461 237 l 1461 233 l 1457 237 l 1454 237 l 1407 233 l 1331 237 l 1328 233 l 1324 237 l 1322 233 l 1322 237 l 1318 233 l 1116 233 l 1114 237 l 1110 237 l 1110 233 l 1082 240 l 1078 237 l 1076 237 l 1063 240 l 1053 233 l 1000 237 l 937 237 l 924 233 l 911 237 l 908 237 l 895 233 l 883 237 l 883 233 l 880 237 l 842 237 l 820 233 l 820 237 l 817 233 l 813 233 l 801 237 l 798 233 l 795 233 l 785 237 l 785 233 l 782 237 l 725 237 l 725 243 l 722 243 l 722 237 l 709 237 l 709 243 l 703 243 l 703 237 l 696 243 l 681 240 l 677 240 l 677 246 l 646 246 l 633 243 l 621 246 l 586 246 l 583 250 l 580 250 l 580 243 l 561 250 l 557 246 l 542 250 l 517 250 l 513 246 l 511 250 l 498 250 l 460 246 l 460 250 l 457 246 l 448 250 l 419 246 l 406 250 l 403 246 l 400 246 l 391 250 l 372 246 l 368 250 l 366 246 l 362 246 l 359 250 l 356 246 l 349 246 l 337 250 l 324 246 l 321 250 l 321 246 l 318 250 q 277 240 277 246 l 264 246 l 252 240 l 239 243 l 236 240 l 233 240 l 220 243 l 217 243 l 217 237 l 214 237 l 210 240 l 208 240 l 204 237 l 166 243 q 151 237 166 237 l 151 233 l 135 237 l 37 237 l 40 240 l 40 243 q -4 269 16 243 l -1 269 l 12 265 l 18 410 m 513 410 q 557 385 540 410 l 557 315 l 567 313 q 576 325 569 325 l 583 325 q 561 300 580 300 l 539 313 q 498 300 539 306 q 466 332 466 307 l 466 338 q 517 357 471 357 q 545 376 541 366 l 526 391 l 501 391 l 494 385 l 498 382 l 498 379 l 488 366 l 482 366 q 469 382 469 373 q 513 410 480 410 m 779 410 l 785 410 q 823 385 823 406 q 836 351 831 385 q 788 297 826 297 l 769 297 q 731 360 731 315 q 779 410 752 410 m 1158 410 l 1189 410 l 1189 407 l 1183 407 l 1183 404 q 1202 391 1202 404 q 1217 351 1211 391 q 1170 297 1208 297 l 1151 297 q 1114 353 1114 315 l 1107 360 l 1107 363 q 1126 388 1120 363 l 1158 410 m 1723 410 l 1744 410 q 1782 385 1765 410 l 1782 370 l 1773 360 l 1763 360 l 1751 372 l 1754 385 l 1738 391 q 1713 363 1713 385 l 1716 360 l 1707 360 l 1707 351 l 1723 325 l 1726 328 l 1732 322 l 1732 319 q 1776 341 1754 319 l 1782 341 l 1786 332 q 1729 300 1770 300 q 1688 357 1688 318 q 1723 410 1688 389 m 1839 410 l 1855 410 q 1877 404 1862 404 l 1896 357 l 1896 353 l 1883 306 l 1881 309 l 1877 309 q 1845 297 1877 300 l 1836 297 q 1792 353 1792 309 q 1839 410 1805 410 m 1927 410 l 1934 410 l 1944 404 l 1953 410 l 1969 410 l 1982 404 l 2009 410 l 2013 410 q 2032 382 2032 399 l 2032 319 q 2047 309 2047 318 l 2041 300 l 2038 303 l 2022 300 l 2016 300 l 2003 303 l 1991 300 l 1988 300 l 1975 303 l 1965 300 l 1956 303 l 1937 300 l 1934 300 l 1931 303 l 1927 303 l 1921 297 l 1918 297 q 1906 313 1912 298 l 1925 325 l 1921 357 l 1925 370 l 1921 385 l 1925 388 l 1925 391 q 1906 401 1906 391 q 1927 410 1917 410 m 366 404 l 366 395 l 372 395 l 372 397 l 366 404 m 1391 370 l 1404 363 l 1410 370 l 1429 370 l 1432 366 l 1435 366 l 1438 370 l 1438 366 l 1461 370 q 1442 397 1453 394 l 1423 397 q 1391 370 1391 393 m 400 391 l 400 385 l 393 385 l 391 388 l 387 388 l 381 379 l 387 379 l 387 372 l 384 372 l 381 376 l 378 376 l 381 360 l 381 353 l 372 353 l 372 360 l 368 360 l 366 344 l 366 328 l 368 328 q 375 351 368 351 l 378 351 l 381 341 l 378 322 q 387 313 387 322 l 397 313 q 416 322 408 322 l 416 325 l 412 328 l 416 332 l 416 360 l 412 363 l 416 366 l 416 370 l 412 372 l 416 376 l 416 379 l 406 391 l 400 391 m 1050 391 l 1050 385 l 1044 385 l 1041 388 l 1038 388 l 1031 379 l 1038 379 l 1038 376 l 1031 370 l 1025 376 l 1025 372 l 1031 366 l 1028 353 l 1019 353 l 1019 360 l 1015 360 l 1013 332 l 1015 328 l 1019 328 q 1025 351 1019 351 l 1028 347 l 1028 344 l 1025 322 l 1044 313 q 1053 322 1053 313 l 1057 322 l 1060 319 l 1063 319 l 1066 332 l 1063 334 l 1063 376 l 1066 379 l 1066 382 l 1053 391 l 1050 391 m 1940 357 l 1944 319 l 1956 313 l 1969 338 l 1963 338 l 1963 344 l 1969 344 l 1969 357 l 1965 370 l 1969 382 l 1959 391 l 1956 391 q 1940 357 1945 391 m 460 391 l 466 385 l 466 382 l 460 382 l 460 391 m 753 344 q 779 315 757 332 l 779 313 q 810 334 810 323 l 817 344 l 813 347 l 813 351 l 817 353 l 817 357 q 798 385 808 381 l 785 385 l 785 379 l 776 379 l 779 382 l 779 388 q 753 344 755 388 m 1135 344 q 1160 315 1139 332 l 1160 313 q 1183 319 1168 319 l 1198 341 l 1196 351 l 1198 353 l 1198 357 q 1179 385 1191 381 l 1167 385 l 1167 379 l 1158 379 l 1160 382 l 1160 388 q 1135 344 1137 388 m 1814 363 l 1814 351 q 1839 315 1814 332 l 1839 313 q 1871 334 1871 323 l 1874 347 l 1874 366 l 1858 385 l 1845 385 l 1845 376 l 1836 379 l 1839 382 l 1839 388 q 1814 363 1825 388 m 1997 388 q 1984 372 1997 379 l 1988 370 l 1988 322 l 1997 313 l 2003 313 q 2016 332 2009 313 l 2007 332 l 2007 334 l 2016 357 l 2009 363 l 2009 370 l 2016 370 l 2016 376 l 2013 376 l 2009 372 l 2007 372 l 2007 388 l 1997 388 m 1107 388 l 1110 388 l 1116 382 l 1107 382 l 1107 388 m 441 363 l 448 363 l 448 353 l 441 353 l 441 363 m 466 363 l 466 353 l 463 353 l 457 360 l 460 363 l 466 363 m 1088 363 l 1095 363 l 1095 353 l 1088 353 l 1088 363 m 517 347 l 517 351 q 482 332 482 342 l 479 328 q 492 313 485 314 l 511 313 q 545 332 527 313 l 545 347 l 539 353 l 517 347 m 1650 357 l 1659 357 q 1681 328 1681 347 q 1659 297 1681 311 l 1656 297 q 1625 315 1638 297 l 1625 334 q 1650 357 1627 344 m 646 351 q 640 334 646 334 l 643 319 l 652 319 l 656 322 l 659 319 l 675 319 l 652 351 l 646 351 m 438 344 l 441 344 l 448 338 l 448 334 l 444 334 l 438 341 l 438 344 m 1088 344 l 1095 344 l 1095 334 l 1088 341 l 1088 344 m 40 338 l 50 338 l 50 328 l 46 328 l 40 334 l 40 338 m 53 325 l 59 319 l 59 315 l 53 322 l 53 325 m 56 313 l 59 313 l 59 309 l 37 303 q 56 313 37 309 m 62 297 l 65 297 l 65 294 l 37 288 l 34 288 l 34 290 l 62 297 m 356 278 l 378 275 l 378 271 l 362 269 l 349 271 l 349 275 l 356 275 l 356 278 m 523 265 l 523 259 l 532 262 l 532 265 l 523 265 m 791 265 l 807 265 l 807 262 l 791 262 l 791 265 m 1388 265 l 1398 262 l 1398 259 l 1385 259 l 1388 262 l 1388 265 m 1805 252 l 1912 252 l 1912 250 l 1843 250 l 1843 240 l 1830 240 l 1830 246 l 1827 246 l 1827 240 l 1805 240 l 1805 252 m 1669 243 l 1669 240 l 1681 237 l 1685 237 l 1685 240 l 1675 243 l 1669 243 m 154 199 q 173 183 167 195 l 173 174 l 160 161 l 154 161 q 138 180 142 167 q 154 199 142 193 m 494 193 l 507 193 q 517 170 515 193 l 520 170 l 517 161 l 520 151 l 517 132 l 520 132 l 517 123 l 520 107 l 523 107 q 549 136 549 128 l 539 136 l 539 142 l 549 151 l 595 151 l 602 145 l 602 142 q 574 132 602 132 l 551 111 q 583 60 572 66 l 599 63 l 608 60 l 608 50 q 586 41 608 43 l 586 44 l 583 41 l 580 41 l 545 44 l 492 41 l 479 50 q 501 60 479 60 l 501 104 l 498 107 l 501 111 l 501 120 l 498 132 l 501 145 l 501 149 q 475 177 501 177 l 475 183 l 473 186 l 475 189 l 494 193 m 738 193 l 741 189 l 744 193 l 757 193 l 776 186 l 776 180 l 769 180 l 769 136 q 776 149 776 136 l 779 145 l 782 145 l 801 151 l 817 151 l 829 142 l 832 145 l 836 145 l 836 142 l 832 139 l 839 104 l 836 92 l 839 63 l 842 63 l 842 73 l 848 73 q 864 57 848 64 l 867 60 l 870 57 l 870 50 l 832 41 l 829 44 l 823 44 l 810 41 l 801 47 l 741 41 l 731 44 l 731 60 l 750 63 l 750 168 q 731 174 750 174 l 728 186 l 738 193 m 1151 193 l 1158 193 l 1186 186 q 1177 180 1186 180 l 1177 136 l 1179 136 l 1179 149 l 1196 145 q 1215 155 1196 151 q 1233 142 1233 149 l 1236 145 l 1242 145 l 1242 142 l 1240 139 l 1246 104 l 1242 82 l 1246 69 l 1242 66 l 1246 63 l 1249 63 l 1249 73 l 1255 73 q 1271 57 1255 64 l 1274 60 l 1278 57 l 1278 54 q 1240 41 1263 44 l 1227 44 l 1217 41 l 1208 47 l 1148 41 l 1135 44 l 1135 54 q 1158 63 1137 63 l 1158 158 q 1142 174 1158 174 l 1135 180 l 1135 189 l 1151 193 m 116 158 l 128 155 l 132 158 q 170 145 170 154 l 170 44 q 128 0 170 0 q 94 25 100 12 l 94 50 l 116 57 l 125 41 l 125 35 l 119 25 l 122 28 l 135 25 l 151 28 l 147 32 l 151 47 l 151 130 l 138 139 l 135 136 l 135 132 l 119 136 l 106 136 l 106 149 l 116 158 m 192 155 l 192 151 l 195 155 l 201 155 q 229 130 229 155 l 229 73 l 239 60 q 277 95 250 61 l 274 98 l 274 107 l 277 111 l 271 130 q 248 142 254 130 q 271 155 254 155 q 299 139 291 155 l 299 126 l 296 114 l 299 111 l 299 107 l 296 104 l 296 101 l 299 92 l 296 88 l 296 85 l 299 73 l 296 69 q 321 57 321 62 l 321 50 l 315 41 l 311 44 l 302 44 l 290 41 q 280 50 280 41 l 277 54 l 274 54 q 236 41 252 41 l 229 41 q 204 92 212 41 l 208 117 q 185 130 205 130 l 179 149 l 179 151 l 182 149 l 185 149 l 192 155 m 406 155 q 441 111 435 155 l 441 60 l 460 60 l 466 54 l 466 47 l 454 41 l 412 41 l 410 38 l 406 38 l 400 47 l 400 50 q 422 60 402 60 l 419 82 l 422 85 l 422 88 l 419 101 l 422 104 l 419 114 l 422 123 l 410 132 l 400 132 q 368 95 378 116 l 368 57 l 391 54 l 391 41 l 359 41 l 340 38 l 328 47 l 328 54 l 349 57 l 347 60 l 353 98 l 349 107 l 353 107 l 349 111 l 349 114 l 353 117 l 347 132 l 343 130 l 337 130 l 328 139 l 340 151 l 359 151 q 368 132 368 149 q 406 155 387 155 m 1069 155 q 1104 130 1092 155 l 1104 60 l 1120 60 l 1133 47 l 1120 41 l 1085 41 l 1069 38 l 1066 54 l 1066 57 l 1088 60 l 1085 76 l 1085 123 l 1076 132 q 1031 95 1054 132 l 1034 92 l 1034 85 l 1031 82 l 1034 79 l 1034 76 l 1031 60 l 1057 54 l 1057 41 l 1025 41 l 1006 38 l 994 41 l 994 50 q 1013 57 994 57 l 1013 60 l 1015 101 l 1013 101 l 1019 117 l 1013 132 l 1009 130 l 1003 130 l 994 139 l 994 142 l 1003 151 l 1025 151 q 1031 130 1031 151 q 1069 155 1051 155 m 1324 155 l 1324 151 l 1328 155 q 1375 114 1375 148 l 1375 104 l 1366 95 l 1360 101 l 1343 95 l 1334 98 l 1331 95 l 1331 98 l 1328 95 l 1322 95 l 1318 98 l 1316 95 l 1297 95 l 1297 79 q 1328 57 1312 57 q 1369 82 1350 63 l 1372 79 l 1372 69 q 1322 44 1356 44 q 1274 98 1291 44 l 1268 98 q 1280 126 1280 110 q 1324 155 1301 155 m 1470 155 q 1505 126 1505 153 q 1495 111 1502 111 l 1482 111 l 1473 120 l 1473 123 l 1480 132 l 1480 136 l 1476 136 q 1432 82 1442 136 l 1432 66 l 1438 60 l 1467 60 q 1486 50 1486 58 l 1486 47 l 1470 44 l 1457 44 l 1442 47 l 1423 44 l 1385 44 l 1381 57 q 1416 76 1416 57 l 1413 79 l 1416 95 l 1416 107 l 1413 120 l 1416 130 l 1385 139 l 1385 145 l 1391 151 l 1419 151 l 1435 149 l 1432 132 q 1470 155 1451 149 m 662 151 l 677 151 q 706 130 705 142 q 719 92 719 117 l 706 54 l 709 50 l 677 41 l 649 41 q 618 88 618 58 l 618 98 q 662 151 628 151 m 924 151 q 965 123 965 138 l 962 120 l 962 111 l 965 111 l 962 88 l 962 57 l 968 57 q 975 66 975 57 l 977 69 l 984 69 l 987 57 q 962 41 972 41 l 946 54 l 899 41 q 867 79 867 54 q 908 101 884 101 l 908 98 q 946 114 946 107 l 946 120 l 927 136 l 924 132 l 921 132 l 918 136 l 914 136 q 902 117 902 136 l 889 107 q 873 123 873 113 q 924 151 882 151 m 1549 151 l 1568 151 q 1618 98 1604 151 q 1599 50 1607 50 l 1574 41 l 1552 41 q 1514 92 1522 41 l 1514 101 q 1549 151 1514 127 m 1729 151 l 1744 151 q 1782 120 1782 145 l 1782 111 l 1773 101 l 1767 101 l 1751 114 l 1754 117 l 1754 123 q 1735 132 1751 132 q 1713 104 1713 125 l 1716 101 l 1707 101 l 1707 95 l 1719 69 q 1732 60 1732 68 q 1776 82 1751 60 l 1782 82 l 1786 73 q 1726 41 1786 51 q 1688 101 1688 64 q 1729 151 1700 151 m 1839 151 l 1855 151 q 1877 145 1862 145 l 1896 95 l 1883 50 l 1881 54 l 1877 54 q 1855 41 1877 41 l 1827 41 q 1792 101 1792 58 q 1839 151 1809 151 m 1925 151 l 1934 151 l 1944 145 l 1950 151 l 1969 151 l 1978 145 l 2007 151 l 2016 151 l 2032 132 l 2032 60 q 2047 54 2047 60 l 2047 50 l 2041 41 l 2032 44 l 2028 41 l 2026 41 l 2022 44 l 2019 44 l 2016 41 l 2013 41 l 2000 44 l 1984 41 l 1975 44 l 1963 41 l 1956 47 l 1946 41 l 1940 41 l 1927 44 l 1915 41 l 1902 57 l 1925 63 l 1921 98 l 1925 111 l 1921 126 l 1925 130 l 1925 132 q 1906 142 1906 132 q 1925 151 1909 151 m 1297 123 l 1297 107 l 1328 111 l 1362 111 q 1343 139 1362 127 l 1322 139 q 1297 123 1305 139 m 801 132 l 801 126 l 798 126 l 795 130 l 791 130 l 782 114 l 785 111 l 785 107 l 782 95 l 776 95 l 776 104 l 769 98 l 769 69 l 772 69 q 779 92 772 92 l 782 92 l 782 66 l 791 57 l 791 54 q 820 79 816 54 l 817 92 l 820 92 l 817 95 l 817 101 l 820 104 l 820 107 l 817 111 l 820 111 l 817 114 l 817 117 l 820 120 l 810 132 l 801 132 m 1205 126 l 1202 130 l 1198 130 l 1192 120 l 1198 120 l 1192 114 l 1189 117 l 1189 114 l 1192 111 l 1192 107 l 1189 95 l 1183 95 q 1177 104 1183 104 l 1177 73 l 1179 73 q 1186 92 1179 92 l 1189 92 l 1189 85 l 1192 85 l 1189 82 l 1189 66 l 1198 57 l 1198 54 l 1205 54 q 1224 73 1224 63 l 1227 73 l 1224 88 l 1224 117 l 1227 120 l 1217 132 l 1215 132 l 1205 126 m 1940 95 l 1944 66 l 1940 63 l 1956 57 l 1969 79 l 1963 79 l 1963 85 l 1969 85 l 1969 101 l 1965 114 l 1969 126 l 1959 132 l 1956 132 q 1940 95 1944 132 m 2000 132 q 1988 107 1988 119 l 1988 92 l 1991 88 l 1988 85 l 1988 63 q 2003 54 1988 56 l 2016 73 l 2007 73 l 2007 76 l 2016 98 l 2009 104 l 2009 114 l 2016 114 l 2016 117 q 2007 126 2007 117 l 2000 132 m 637 92 q 662 57 637 77 q 700 88 689 57 l 696 88 l 700 92 l 700 95 q 677 130 691 130 q 668 120 668 130 l 659 130 q 637 92 642 130 m 1274 132 l 1278 130 l 1278 126 l 1268 126 l 1274 132 m 1533 92 q 1558 57 1537 75 q 1596 92 1596 62 l 1593 92 l 1596 95 l 1596 98 q 1574 130 1596 118 q 1565 120 1565 130 l 1555 130 q 1533 92 1541 130 m 1814 98 l 1814 92 q 1839 57 1814 75 q 1874 88 1874 63 l 1874 101 q 1855 130 1874 117 q 1845 120 1845 130 l 1843 120 l 1836 126 l 1839 130 l 1836 130 q 1814 98 1814 120 m 848 107 l 848 95 l 842 101 l 848 107 m 1255 107 l 1255 95 l 1249 101 l 1255 107 m 861 104 l 870 104 l 870 98 l 867 98 l 861 104 m 1647 101 q 1681 69 1681 95 q 1662 41 1681 54 l 1653 41 q 1625 60 1636 41 l 1625 69 q 1647 101 1625 83 m 921 88 l 921 92 l 918 88 l 892 88 q 883 69 892 77 q 905 54 887 54 l 921 54 l 949 69 l 946 85 l 946 95 l 943 95 l 921 88 m 526 82 l 526 60 l 539 60 l 542 63 l 545 60 l 557 60 l 557 63 l 536 92 l 526 82 m 848 88 l 848 79 l 842 85 l 845 88 l 848 88 m 1255 88 l 1255 79 l 1249 79 l 1249 82 l 1255 88 z "},"":{"ha":0,"x_min":0,"x_max":0,"o":""},"":{"ha":916,"x_min":90,"x_max":884,"o":"m 487 1021 q 805 825 666 1021 l 785 807 q 884 496 854 509 l 844 431 l 863 414 l 863 397 q 566 86 754 86 q 130 397 427 86 l 90 479 l 111 496 l 111 512 l 90 578 q 308 956 90 861 q 487 1021 412 1021 m 182 753 l 182 563 l 161 546 l 182 528 l 182 511 l 161 493 l 267 390 q 330 338 267 338 q 498 183 330 308 q 645 132 498 132 q 772 304 645 179 l 772 528 q 477 960 741 960 q 182 753 345 930 m 555 861 q 617 802 617 861 l 608 795 l 600 795 l 581 811 l 564 811 l 555 802 l 546 802 l 537 811 l 537 820 l 501 802 l 492 811 l 484 811 q 323 711 323 784 q 287 635 323 665 q 412 401 305 412 l 581 376 l 581 360 l 573 351 l 573 344 l 456 360 l 448 335 l 412 335 q 332 394 412 358 q 287 477 300 425 q 252 502 252 477 l 260 561 l 243 561 q 340 811 273 806 q 555 861 507 861 z "},"":{"ha":0,"x_min":0,"x_max":0,"o":""},"":{"ha":5,"x_min":0,"x_max":0,"o":""},"":{"ha":0,"x_min":0,"x_max":0,"o":""},"":{"ha":942,"x_min":25,"x_max":922,"o":"m 31 654 q 237 1015 44 874 l 252 987 q 549 1061 536 1027 l 607 1003 l 625 1024 l 640 1021 q 907 609 922 840 q 548 90 922 232 l 505 85 l 491 113 l 476 115 l 413 100 q 77 425 150 143 q 31 654 25 563 m 329 173 l 385 152 l 436 151 l 454 175 l 470 172 l 485 142 l 523 144 q 723 248 684 226 q 858 507 785 286 q 859 742 847 543 q 626 962 765 870 l 500 981 q 75 648 96 1008 q 329 173 64 370 m 476 943 q 699 803 699 891 q 553 534 665 534 l 515 534 l 379 556 l 379 545 q 544 363 484 363 q 688 288 544 338 l 688 277 l 680 266 l 688 255 l 688 234 l 669 234 q 650 266 650 234 l 621 277 l 583 266 q 428 394 500 293 q 340 513 340 481 l 321 513 l 312 309 l 302 309 l 312 298 l 312 277 l 302 266 l 302 255 l 321 255 q 292 201 309 201 l 273 201 l 273 244 q 379 911 294 911 l 476 943 m 331 654 l 331 621 l 360 588 l 437 610 l 515 588 l 553 599 l 583 588 q 640 707 640 643 l 640 739 q 476 901 640 841 q 370 782 370 868 q 331 654 331 718 m 631 847 l 660 803 q 631 847 645 847 z "},"":{"ha":5,"x_min":0,"x_max":0,"o":""},"":{"ha":5,"x_min":0,"x_max":0,"o":""},"":{"ha":0,"x_min":0,"x_max":0,"o":""},"":{"ha":0,"x_min":0,"x_max":0,"o":""},"":{"ha":0,"x_min":0,"x_max":0,"o":""},"":{"ha":389,"x_min":62,"x_max":367,"o":"m 353 1014 l 367 989 l 326 916 l 317 922 l 319 911 l 312 907 l 303 913 l 304 902 l 271 880 l 219 824 l 161 811 l 166 802 l 158 808 l 120 785 l 122 774 l 113 781 l 106 776 l 108 766 l 104 763 l 100 772 l 101 761 l 98 759 l 76 756 l 71 765 q 106 834 62 780 q 216 869 133 827 q 321 971 220 895 q 353 1014 315 981 z "},"":{"ha":0,"x_min":0,"x_max":0,"o":""},"":{"ha":5,"x_min":0,"x_max":0,"o":""},"":{"ha":5,"x_min":0,"x_max":0,"o":""},"":{"ha":0,"x_min":0,"x_max":0,"o":""},"":{"ha":0,"x_min":0,"x_max":0,"o":""},"":{"ha":0,"x_min":0,"x_max":0,"o":""},"":{"ha":0,"x_min":0,"x_max":0,"o":""},"":{"ha":0,"x_min":0,"x_max":0,"o":""},"":{"ha":1429,"x_min":47,"x_max":1431,"o":"m 525 1236 l 555 1226 l 535 1206 l 515 1226 l 525 1236 m 566 1236 l 616 1236 l 658 1226 l 668 1236 l 678 1236 q 1156 1033 998 1175 q 1309 850 1309 901 q 566 1216 1017 1216 l 566 1236 m 505 1226 l 505 1206 q 149 1084 436 1206 l 128 1084 q 444 1216 128 1117 l 505 1226 m 515 1124 l 535 1033 l 576 1033 l 576 1053 l 545 1053 l 545 1063 q 576 1084 545 1084 l 576 1104 l 535 1104 l 535 1124 l 586 1124 l 606 1104 l 606 1013 l 545 1002 l 545 1013 l 535 1002 l 505 1002 l 494 1043 l 484 1043 l 484 1033 l 494 992 l 464 992 l 444 1104 l 454 1114 l 484 1114 q 505 1084 484 1084 l 494 1094 l 494 1104 l 515 1124 m 616 1124 l 719 1124 l 719 1104 l 729 1114 l 739 1114 q 760 1084 760 1114 l 770 1074 l 780 1074 q 800 1104 780 1104 l 810 1094 l 810 1084 q 749 992 782 1015 l 729 992 l 729 1094 l 719 1094 l 709 1002 l 699 1002 l 678 1023 l 688 1084 l 688 1094 l 648 1104 l 637 1074 l 648 1074 l 637 1063 l 637 1053 l 648 1023 l 637 1013 l 616 1013 l 616 1124 m 821 1084 l 851 1084 l 851 1074 l 831 992 l 841 982 l 851 982 l 882 1063 l 912 1063 l 912 1043 l 861 951 l 770 982 l 770 992 l 790 1013 l 800 1002 l 821 1084 m 983 1023 l 1004 1002 l 912 931 l 902 931 l 902 941 l 983 1023 m 159 992 l 67 829 l 57 829 l 47 951 l 159 1002 l 159 992 m 1014 982 l 1044 982 l 1044 941 l 1095 951 l 1095 941 l 1004 870 l 983 890 l 1014 982 m 1105 931 l 1126 911 l 1044 829 l 1024 850 l 1105 931 m 1136 911 l 1177 860 l 1085 779 l 1075 789 l 1075 799 l 1136 860 l 1116 890 l 1136 911 m 179 880 l 199 880 l 230 870 l 230 850 l 220 850 l 179 880 m 882 880 q 1197 340 882 852 l 1197 310 l 1146 300 l 1146 310 l 1136 300 l 1075 300 l 637 279 l 627 279 l 555 269 l 240 789 l 240 819 l 260 840 q 494 860 444 840 l 505 850 l 505 860 l 515 850 l 882 880 m 1187 850 l 1197 840 l 1197 829 l 1177 799 l 1187 789 l 1197 789 l 1227 799 l 1227 768 l 1146 748 l 1166 728 l 1248 758 l 1248 748 q 1177 707 1248 728 l 1177 697 l 1187 687 l 1187 677 l 1278 707 l 1278 697 q 1166 635 1278 669 l 1166 646 q 1105 748 1133 748 l 1105 758 l 1187 850 m 1309 850 q 1360 758 1326 850 q 1309 850 1309 799 m 658 829 l 658 819 l 699 819 l 699 829 l 658 829 m 729 829 l 729 819 l 780 819 l 780 829 l 729 829 m 780 748 l 780 738 l 800 758 l 800 768 l 780 748 m 1380 697 l 1390 697 l 1411 595 l 1411 574 l 1400 574 l 1380 687 l 1380 697 m 810 619 l 810 528 l 800 528 l 790 538 q 739 497 744 517 q 932 365 739 436 l 1014 517 l 1004 517 l 953 548 q 902 467 937 548 l 871 436 l 821 456 l 821 487 l 861 487 l 871 477 l 882 477 l 902 578 l 831 619 l 810 619 m 230 554 l 250 554 l 250 544 l 230 513 l 230 503 q 281 483 281 503 l 159 452 l 149 463 l 149 473 l 230 554 m 464 493 l 474 463 l 484 463 l 484 483 l 474 493 l 464 493 m 281 473 q 321 422 301 468 l 240 361 l 220 361 l 220 391 q 281 432 250 391 l 260 463 l 271 473 l 281 473 m 1400 422 l 1431 422 l 1411 391 l 1421 381 l 1411 371 l 1400 371 l 1380 391 q 1400 422 1400 391 m 311 412 l 342 412 l 332 361 l 352 361 l 362 371 l 372 371 l 382 361 l 382 340 l 301 300 l 281 300 l 260 320 q 311 412 311 369 m 382 340 l 403 340 l 444 320 l 444 300 q 393 218 444 244 q 332 269 332 218 q 382 340 357 269 m 403 310 l 393 300 l 393 290 l 403 279 l 413 279 l 423 290 l 423 300 l 413 310 l 403 310 m 372 279 l 372 249 l 382 249 l 403 269 l 372 279 m 515 269 q 566 229 561 249 q 505 127 530 127 l 494 137 l 494 147 l 535 229 l 505 239 l 505 249 l 515 259 l 515 269 m 1299 259 l 1309 259 l 1309 249 l 1268 208 l 1258 208 l 1258 218 l 1299 259 m 596 229 l 606 188 l 616 188 l 648 208 l 658 208 l 658 188 q 586 96 604 99 l 566 117 q 596 229 576 229 m 709 198 l 719 188 l 709 147 l 729 76 l 699 76 l 688 117 q 668 86 668 117 l 637 86 l 637 96 q 709 198 693 198 m 790 188 l 800 188 q 841 117 841 173 l 821 66 l 760 66 l 749 117 l 749 147 l 790 188 m 851 188 l 861 188 q 892 137 884 188 l 902 137 l 902 188 l 932 188 l 943 86 l 943 66 l 892 66 q 851 188 859 66 m 780 157 l 780 86 l 800 86 l 800 157 l 780 157 m 515 789 l 515 698 l 505 698 l 494 708 q 444 667 448 688 q 637 535 444 606 l 718 688 l 708 688 l 657 718 q 606 637 642 718 l 576 606 l 525 627 l 525 657 l 566 657 l 576 647 l 586 647 l 606 749 l 535 789 l 515 789 z "},"":{"ha":5,"x_min":0,"x_max":0,"o":""},"":{"ha":5,"x_min":0,"x_max":0,"o":""},"":{"ha":0,"x_min":0,"x_max":0,"o":""},"":{"ha":3,"x_min":0,"x_max":0,"o":""},"":{"ha":0,"x_min":0,"x_max":0,"o":""},"":{"ha":3,"x_min":0,"x_max":0,"o":""},"":{"ha":722,"x_min":19,"x_max":703,"o":"m 64 1145 l 82 1118 l 73 1109 q 100 1082 73 1082 l 109 1074 l 109 1065 l 82 1038 l 64 1038 l 19 1074 q 64 1145 19 1145 m 649 1038 q 685 1002 678 1028 l 622 903 l 613 903 l 595 920 l 595 929 l 613 947 l 595 1002 l 649 1038 m 343 975 q 415 866 415 925 l 406 840 q 442 515 422 840 q 541 488 541 509 l 541 470 l 460 479 l 451 470 l 460 362 q 442 317 460 317 l 451 308 l 451 155 l 460 101 q 433 2 451 2 l 424 2 q 406 92 420 92 l 415 101 l 415 308 l 424 452 l 406 488 l 181 470 l 190 444 l 181 434 l 181 425 l 190 416 q 91 74 136 74 l 82 83 l 82 101 l 154 380 l 145 389 l 145 407 l 154 416 l 145 425 l 154 470 l 154 479 q 118 497 118 479 l 118 515 q 172 596 172 515 q 307 939 172 722 l 343 975 m 676 965 l 703 965 l 685 947 l 676 947 l 676 965 m 253 722 l 271 722 l 262 695 l 253 695 l 244 704 l 235 704 l 235 695 l 253 668 q 208 642 253 652 l 208 614 l 217 614 l 217 632 l 235 632 l 226 551 l 208 569 l 208 578 l 217 587 l 217 596 l 208 596 l 199 587 l 199 524 l 289 524 l 298 533 l 307 524 l 397 524 l 406 533 l 415 533 l 406 543 l 406 551 l 415 560 q 370 903 391 628 l 343 903 q 253 722 316 898 z "},"":{"ha":507,"x_min":76,"x_max":890,"o":"m 179 1042 l 205 1033 l 205 1007 l 196 1007 l 153 1016 l 179 1042 m 179 990 l 196 973 l 196 964 l 179 964 l 179 990 m 436 973 q 530 836 530 947 q 410 759 479 759 q 316 870 340 759 q 436 973 370 973 m 368 844 l 376 836 l 376 827 l 368 819 l 401 793 l 419 793 q 488 862 488 842 l 462 930 q 368 844 368 916 m 170 922 l 179 922 q 205 870 196 922 l 222 870 l 222 844 l 213 844 q 170 922 196 844 m 325 793 l 325 785 l 307 768 l 307 776 l 325 793 m 333 665 l 342 665 l 359 648 l 359 579 l 350 570 l 376 467 l 368 459 l 368 441 l 376 382 l 368 373 l 470 390 l 505 382 l 505 365 l 488 347 l 393 347 q 376 321 376 347 l 401 227 l 393 176 l 401 73 q 385 47 385 73 l 359 39 l 350 47 l 359 125 l 342 339 l 333 339 q 196 236 281 339 l 136 56 q 111 31 111 56 l 102 22 l 85 22 l 76 64 l 111 116 l 102 159 q 213 339 130 161 l 213 365 l 205 373 q 333 665 312 665 m 248 356 l 256 365 l 264 356 l 342 373 l 342 425 q 325 519 342 484 l 333 519 l 325 579 q 248 356 307 579 m 712 509 l 699 503 l 696 509 l 701 522 l 712 522 l 712 509 m 890 321 l 885 321 l 885 341 l 888 341 l 890 321 m 822 321 l 819 321 l 819 334 l 827 341 l 830 341 l 822 321 z "},"":{"ha":0,"x_min":0,"x_max":0,"o":""},"":{"ha":0,"x_min":0,"x_max":0,"o":""},"":{"ha":0,"x_min":0,"x_max":0,"o":""},"":{"ha":0,"x_min":0,"x_max":0,"o":""},"":{"ha":0,"x_min":0,"x_max":0,"o":""},"":{"ha":0,"x_min":0,"x_max":0,"o":""},"":{"ha":5,"x_min":0,"x_max":0,"o":""},"":{"ha":0,"x_min":0,"x_max":0,"o":""},"":{"ha":0,"x_min":0,"x_max":0,"o":""},"":{"ha":0,"x_min":0,"x_max":0,"o":""},"":{"ha":0,"x_min":0,"x_max":0,"o":""},"":{"ha":5,"x_min":0,"x_max":0,"o":""},"":{"ha":5,"x_min":0,"x_max":0,"o":""},"":{"ha":5,"x_min":0,"x_max":0,"o":""},"":{"ha":5,"x_min":0,"x_max":0,"o":""},"":{"ha":0,"x_min":0,"x_max":0,"o":""},"":{"ha":576,"x_min":71,"x_max":562,"o":"m 144 1138 l 193 1138 q 230 1064 230 1126 l 205 1040 l 169 1040 l 132 1064 l 144 1138 m 488 1089 l 536 1089 l 562 1015 q 500 942 546 966 l 488 942 q 463 979 463 942 l 488 1089 m 169 880 q 427 807 427 834 l 414 795 l 414 782 q 451 709 451 770 l 451 598 q 328 365 451 494 l 316 365 l 316 390 l 304 390 q 401 635 401 546 q 292 795 401 795 q 193 831 193 807 q 119 623 141 831 q 254 390 135 390 q 304 353 254 353 l 304 304 l 279 304 l 132 390 q 71 672 71 479 q 169 880 101 844 m 304 475 l 328 475 l 328 463 l 316 427 l 292 427 l 292 439 l 304 475 z "},"":{"ha":5,"x_min":0,"x_max":0,"o":""},"":{"ha":0,"x_min":0,"x_max":0,"o":""},"":{"ha":5,"x_min":0,"x_max":0,"o":""},"":{"ha":5,"x_min":0,"x_max":0,"o":""},"":{"ha":0,"x_min":0,"x_max":0,"o":""},"":{"ha":0,"x_min":0,"x_max":0,"o":""},"":{"ha":0,"x_min":0,"x_max":0,"o":""},"":{"ha":5,"x_min":0,"x_max":0,"o":""},"":{"ha":0,"x_min":0,"x_max":0,"o":""},"":{"ha":5,"x_min":0,"x_max":0,"o":""},"":{"ha":5,"x_min":0,"x_max":0,"o":""},"":{"ha":5,"x_min":0,"x_max":0,"o":""},"":{"ha":5,"x_min":0,"x_max":0,"o":""},"":{"ha":685,"x_min":-15,"x_max":668,"o":"m 488 859 l 513 859 l 536 836 l 524 823 l 488 823 l 488 859 m 345 836 l 380 836 q 452 620 437 836 l 596 620 q 668 584 668 614 l 668 559 l 632 559 l 632 584 q 513 559 513 578 l 500 572 l 465 572 l 465 559 l 513 296 l 500 248 l 513 200 l 465 200 l 416 524 l 429 536 l 404 559 l 416 572 l 380 584 q 189 524 189 538 q 45 284 189 491 l 57 272 l 57 236 q -15 272 -6 236 q 177 620 177 559 q 213 715 213 629 q 345 836 237 715 m 210 1060 l 258 1060 q 294 988 294 1048 l 270 964 l 234 964 l 198 988 l 210 1060 m 345 775 q 237 595 249 650 l 249 595 l 404 631 q 345 775 404 722 m 545 1012 l 593 1012 l 617 940 q 557 868 602 892 l 545 868 q 522 904 522 868 l 545 1012 z "},"":{"ha":490,"x_min":47,"x_max":570,"o":"m 227 784 l 246 755 l 237 746 l 256 746 l 246 699 l 246 679 l 294 460 l 342 470 l 437 470 l 437 432 l 389 422 l 351 432 l 304 422 q 351 222 304 273 q 313 71 330 71 l 294 90 q 256 404 294 332 l 256 422 q 123 328 123 422 l 132 318 l 132 309 q 104 156 116 290 q 85 109 85 156 l 75 109 l 85 99 l 85 61 l 66 61 l 47 80 l 47 118 q 104 356 47 187 l 94 356 l 142 536 q 208 774 159 549 l 218 784 l 227 784 m 208 622 l 180 460 q 256 489 251 460 l 218 622 l 208 622 m 541 489 l 570 489 l 570 470 l 541 470 l 541 489 m 199 1114 q 304 962 304 1086 q 170 876 246 876 q 66 1000 92 876 q 199 1114 125 1114 m 123 972 l 132 962 l 132 953 l 123 943 l 161 915 l 180 915 q 256 991 256 969 l 227 1067 q 123 972 123 1050 m 75 915 l 75 905 l 56 886 l 56 895 l 75 915 z "},"":{"ha":5,"x_min":0,"x_max":0,"o":""},"":{"ha":0,"x_min":0,"x_max":0,"o":""},"":{"ha":5,"x_min":0,"x_max":0,"o":""},"":{"ha":0,"x_min":0,"x_max":0,"o":""},"":{"ha":5,"x_min":0,"x_max":0,"o":""},"":{"ha":5,"x_min":0,"x_max":0,"o":""},"":{"ha":5,"x_min":0,"x_max":0,"o":""},"":{"ha":5,"x_min":0,"x_max":0,"o":""},"":{"ha":5,"x_min":0,"x_max":0,"o":""},"":{"ha":0,"x_min":0,"x_max":0,"o":""},"":{"ha":0,"x_min":0,"x_max":0,"o":""},"":{"ha":5,"x_min":0,"x_max":0,"o":""},"":{"ha":0,"x_min":0,"x_max":0,"o":""},"":{"ha":0,"x_min":0,"x_max":0,"o":""},"":{"ha":5,"x_min":0,"x_max":0,"o":""},"":{"ha":5,"x_min":0,"x_max":0,"o":""},"":{"ha":863,"x_min":45,"x_max":821,"o":"m 91 1103 l 148 1057 l 205 1057 l 205 1034 l 216 1034 q 159 920 197 920 l 79 920 l 45 1034 q 68 1091 68 1034 l 79 1103 l 91 1103 m 148 1023 l 148 989 l 159 954 l 171 954 l 171 966 l 159 1023 l 148 1023 m 695 1023 q 821 943 749 1023 q 741 886 804 886 l 718 886 q 684 989 684 886 l 695 1023 m 479 897 l 479 886 l 490 897 l 524 897 q 547 852 547 897 q 752 624 656 852 l 775 601 l 775 578 l 752 578 l 787 373 q 502 65 701 65 q 273 191 273 117 l 194 328 q 148 567 159 328 q 273 806 148 684 l 285 818 q 467 886 285 872 l 479 897 m 205 635 l 216 624 l 205 567 l 205 532 q 330 179 228 361 q 490 134 458 168 l 513 134 l 536 157 l 547 145 l 593 145 q 718 361 681 199 l 707 453 l 718 544 l 718 601 q 673 692 673 601 q 570 806 638 692 l 536 818 q 205 635 265 818 z "},"":{"ha":0,"x_min":0,"x_max":0,"o":""},"":{"ha":5,"x_min":0,"x_max":0,"o":""},"":{"ha":0,"x_min":0,"x_max":0,"o":""},"":{"ha":0,"x_min":0,"x_max":0,"o":""},"":{"ha":5,"x_min":0,"x_max":0,"o":""},"":{"ha":5,"x_min":0,"x_max":0,"o":""},"":{"ha":5,"x_min":0,"x_max":0,"o":""},"":{"ha":0,"x_min":0,"x_max":0,"o":""},"":{"ha":0,"x_min":0,"x_max":0,"o":""},"":{"ha":0,"x_min":0,"x_max":0,"o":""},"":{"ha":0,"x_min":0,"x_max":0,"o":""},"":{"ha":5,"x_min":0,"x_max":0,"o":""},"":{"ha":0,"x_min":0,"x_max":0,"o":""},"":{"ha":5,"x_min":0,"x_max":0,"o":""},"":{"ha":5,"x_min":0,"x_max":0,"o":""},"":{"ha":0,"x_min":0,"x_max":0,"o":""},"":{"ha":5,"x_min":0,"x_max":0,"o":""},"":{"ha":0,"x_min":0,"x_max":0,"o":""},"":{"ha":0,"x_min":0,"x_max":0,"o":""},"":{"ha":0,"x_min":0,"x_max":0,"o":""},"":{"ha":5,"x_min":0,"x_max":0,"o":""},"":{"ha":0,"x_min":0,"x_max":0,"o":""},"":{"ha":0,"x_min":0,"x_max":0,"o":""},"":{"ha":5,"x_min":0,"x_max":0,"o":""},"":{"ha":5,"x_min":0,"x_max":0,"o":""},"":{"ha":0,"x_min":0,"x_max":0,"o":""},"":{"ha":5,"x_min":0,"x_max":0,"o":""},"":{"ha":5,"x_min":0,"x_max":0,"o":""},"":{"ha":5,"x_min":0,"x_max":0,"o":""},"":{"ha":5,"x_min":0,"x_max":0,"o":""},"":{"ha":0,"x_min":0,"x_max":0,"o":""},"":{"ha":0,"x_min":0,"x_max":0,"o":""},"":{"ha":0,"x_min":0,"x_max":0,"o":""},"":{"ha":0,"x_min":0,"x_max":0,"o":""},"":{"ha":0,"x_min":0,"x_max":0,"o":""},"":{"ha":0,"x_min":0,"x_max":0,"o":""},"":{"ha":0,"x_min":0,"x_max":0,"o":""},"":{"ha":724,"x_min":27,"x_max":761,"o":"m 501 992 l 511 983 l 511 975 l 519 983 l 564 983 q 618 956 618 979 l 618 947 l 591 939 l 555 947 l 546 939 l 537 939 l 511 947 l 501 939 l 501 947 q 224 795 327 918 l 206 751 l 206 724 l 215 732 l 224 732 l 609 751 l 627 768 l 699 751 l 699 724 l 680 724 l 654 732 l 475 706 l 466 715 l 394 706 l 385 715 l 376 715 l 197 679 q 224 581 197 608 l 287 598 l 287 589 l 403 625 l 403 616 l 430 625 l 439 616 l 448 616 q 627 670 575 670 l 654 661 l 654 652 l 430 572 q 358 545 396 545 l 287 563 l 215 545 l 206 553 l 233 419 l 224 393 q 385 178 296 178 l 519 196 l 519 186 l 654 294 q 743 339 685 294 l 761 339 l 761 330 q 546 160 575 160 l 367 142 q 242 258 304 142 l 233 267 q 189 419 217 276 l 179 429 l 197 455 l 170 563 q 54 527 101 527 l 45 527 l 36 536 l 27 536 q 170 589 27 565 l 161 652 l 161 670 l 63 652 l 54 652 l 36 670 q 153 715 36 686 l 233 858 l 340 947 l 349 939 l 501 992 z "},"":{"ha":5,"x_min":0,"x_max":0,"o":""},"":{"ha":0,"x_min":0,"x_max":0,"o":""},"":{"ha":0,"x_min":0,"x_max":0,"o":""},"":{"ha":0,"x_min":0,"x_max":0,"o":""},"":{"ha":0,"x_min":0,"x_max":0,"o":""},"":{"ha":5,"x_min":0,"x_max":0,"o":""},"":{"ha":5,"x_min":0,"x_max":0,"o":""},"":{"ha":5,"x_min":0,"x_max":0,"o":""},"":{"ha":5,"x_min":0,"x_max":0,"o":""},"":{"ha":5,"x_min":0,"x_max":0,"o":""},"":{"ha":0,"x_min":0,"x_max":0,"o":""},"":{"ha":5,"x_min":0,"x_max":0,"o":""},"":{"ha":0,"x_min":0,"x_max":0,"o":""},"":{"ha":5,"x_min":0,"x_max":0,"o":""},"":{"ha":0,"x_min":0,"x_max":0,"o":""}}}
